SplineFontDB: 1.0
FontName: MnSymbolS5
FullName: MnSymbolS5
FamilyName: MnSymbolS5
Weight: Regular
Copyright: Generated from MetaFont bitmap by mftrace 1.1.17, http://www.xs4all.nl/~hanwen/mftrace/ 
Version: 001.001
ItalicAngle: 0
UnderlinePosition: -100
UnderlineWidth: 50
Ascent: 800
Descent: 200
NeedsXUIDChange: 1
UniqueID: 4149075
OS2TypoAscent: 0
OS2TypoAOffset: 1
OS2TypoDescent: 0
OS2TypoDOffset: 1
OS2TypoLinegap: 0
OS2WinAscent: 0
OS2WinAOffset: 1
OS2WinDescent: 0
OS2WinDOffset: 1
HheadAscent: 0
HheadAOffset: 1
HheadDescent: 0
HheadDOffset: 1
OS2Vendor: 'PfEd'
Encoding: Custom
UnicodeInterp: none
NameList: Adobe Glyph List
DisplaySize: -24
AntiAlias: 1
FitToEm: 1
WinInfo: 54 18 9
BeginPrivate: 3
lenIV 1 4
BlueValues 2 []
ForceBold 5 false
EndPrivate
BeginChars: 256 28
StartChar: A
Encoding: 65 65 2
Width: 1110
Flags: W
HStem: -57 108<184 271.5> -33 73<896.5 974> 157 73<468 795> 709 20G<798.5 823.5>
VStem: 736 102<670 719>
Back
185.248 69.9639 m 0
 192.29 65.1982 200.091 61.2314 208.488 58.1748 c 0
 218.339 54.5898 229.01 52.2559 240.229 51.2871 c 0
 295.907 46.4795 385.04 164.77 436.698 231.119 c 0
 546.727 372.442 637.473 515.403 710.882 655.404 c 1
 772.078 655.404 l 1
 770.769 652.713 l 2
 683.329 478.743 577.428 312.035 455.734 155.729 c 0
 373.979 50.7197 282.221 -63.0195 208.019 -56.6113 c 0
 194.57 -55.4492 181.744 -52.6602 169.737 -48.2891 c 0
 159.502 -44.5635 149.861 -39.6895 140.943 -33.6543 c 0
 112.961 -14.7178 99.5781 7.70898 94.1025 24.7949 c 0
 87.8584 44.2812 95.9961 78.4033 112.268 100.96 c 0
 128.538 123.517 146.811 126.009 153.056 106.522 c 0
 155.526 98.8125 164.951 83.6992 185.248 69.9639 c 0
893.981 217.642 m 0
 903.804 163.53 919.173 111.728 939.856 62.9189 c 0
 940.617 61.123 941.292 59.8301 942.02 58.5703 c 0
 951.494 42.1592 970.61 38.3438 978.893 41.0283 c 0
 978.919 41.0371 978.203 40.7207 978.209 40.7236 c 2
 994.036 48.709 l 2
 1021.9 62.7637 1047.79 62.3936 1051.83 47.8809 c 0
 1055.88 33.3691 1036.55 10.1846 1008.69 -3.87109 c 2
 992.864 -11.8535 l 2
 985.427 -15.6064 974.234 -20.6309 962.315 -24.4951 c 0
 897.484 -45.5127 858.45 -24.0771 843.556 1.72168 c 0
 842.367 3.7793 841.264 5.8916 840.021 8.8252 c 0
 818.583 59.4141 802.656 113.089 792.47 169.206 c 0
 762.864 332.297 744.153 499.485 736.44 669.875 c 0
 735.713 685.944 757.963 708.924 786.105 721.168 c 0
 814.248 733.412 837.679 730.307 838.406 714.237 c 0
 846.054 545.269 864.611 379.434 893.981 217.642 c 0
467.52 156.924 m 2
 444.755 156.924 439.617 173.275 456.05 193.423 c 0
 472.482 213.571 504.295 229.923 527.06 229.923 c 2
 872.995 229.924 l 2
 895.76 229.924 900.898 213.571 884.465 193.424 c 0
 868.032 173.275 836.22 156.924 813.456 156.924 c 2
 467.52 156.924 l 2
EndSplineSet
Fore
92 40 m 0x78
 92 71 115 120 139 120 c 0
 145 120 150 115 153 107 c 0
 163 77 209 51 244 51 c 0xb8
 299 51 386 166 437 231 c 0
 547 372 637 515 711 655 c 1
 737 655 l 1
 736 670 l 2
 735 692 780 729 817 729 c 0
 830 729 838 724 838 714 c 0
 849 485 890 153 942 59 c 0
 950 45 964 40 973 40 c 0
 975 40 977 40 979 41 c 1
 994 49 l 2
 1008 56 1021 59 1031 59 c 0
 1042 59 1052 55 1052 44 c 0
 1052 29 1034 9 1009 -4 c 2
 993 -12 l 2
 966 -25 938 -33 913 -33 c 0x78
 880 -33 852 -20 840 9 c 0
 820 56 805 105 795 157 c 1
 468 157 l 2
 464 157 460 157 458 158 c 1
 379 57 287 -57 214 -57 c 0xb8
 154 -57 92 -6 92 40 c 0x78
782 230 m 1
 762 349 749 471 741 594 c 1
 686 491 607 361 510 227 c 1
 516 229 522 230 527 230 c 2
 782 230 l 1
EndSplineSet
EndChar
StartChar: B
Encoding: 66 66 3
Width: 915
Flags: W
HStem: -22 73<362 531> 635 74<563 743.5>
VStem: 723 102<180.5 279> 745 102<538 632.5>
Back
179.453 194.342 m 0
 214.292 333.695 239.443 472.944 254.711 611.062 c 1
 232.278 599.743 l 2
 204.418 585.688 178.524 586.057 174.479 600.568 c 0
 170.435 615.08 189.762 638.265 217.622 652.32 c 2
 302.252 695.018 l 2
 318.201 703.064 332.205 706.433 344.075 705.075 c 0
 355.946 703.719 361.442 698.122 360.49 688.36 c 0
 345.607 535.781 318.755 381.603 280.132 227.109 c 0
 262.715 157.444 233.146 87.8252 191.937 20.8301 c 0
 179.701 0.938477 149.193 -18.0703 123.84 -21.6006 c 0
 98.4863 -25.1309 87.8398 -11.8516 100.076 8.04004 c 0
 136.242 66.8359 163.392 130.093 179.453 194.342 c 0
469.608 51.0332 m 0
 562.113 51.0342 630.429 69.7549 665.408 89.9502 c 0
 674.217 95.0361 681.584 100.456 688.445 107.321 c 0
 699.095 117.978 711.13 135.231 717.481 160.639 c 0
 727.216 199.576 722.569 233.338 706.549 261.088 c 0
 665.336 332.47 553.235 359.406 438.37 340.008 c 0
 413.75 335.85 402.188 345.177 409.532 363.269 c 0
 416.877 381.359 439.549 399.393 466.073 408.242 c 0
 573.864 444.203 655.655 473.434 707.177 503.18 c 0
 713.69 506.94 717.161 509.202 719.573 510.792 c 0
 738.162 523.036 741.506 530.081 742.773 535.152 c 0
 748.07 556.339 745.495 575.531 736.383 591.313 c 0
 714.765 628.756 660.477 641.927 611.75 633.134 c 0
 564.801 624.661 531.407 605.293 523.54 600.751 c 0
 425.739 544.285 325.085 406.921 280.132 227.109 c 0
 275.615 209.044 249.397 187.042 221.61 177.998 c 0
 193.823 168.955 174.938 176.276 179.453 194.342 c 0
 220.622 359.016 323.3 546.621 496.918 646.86 c 0
 545.477 674.896 598.783 694.977 650.584 704.325 c 0
 740.146 720.488 808.787 693.298 834.846 648.162 c 0
 847.262 626.658 851.416 599.777 843.452 567.92 c 0
 835.287 535.261 803.031 501.616 758.278 472.139 c 0
 749.785 466.545 741.571 461.557 733.799 457.069 c 0
 706.994 441.594 675.835 426.829 643.765 413.221 c 1
 718.415 400.266 776.593 367.159 805.012 317.937 c 0
 824.35 284.442 830.499 242.765 818.159 193.405 c 0
 811.768 167.838 797.352 132.453 760.489 95.5684 c 0
 738.87 73.9375 714.157 56.6152 692.03 43.8398 c 0
 596.344 -11.4053 483.379 -22.1641 409.907 -22.1641 c 0
 313.525 -22.1641 250.317 11.1562 216.192 35.7559 c 0
 203.402 44.9756 213.376 67.0479 238.454 85.0234 c 0
 263.532 103 294.267 110.106 307.057 100.887 c 0
 364.732 59.3105 428.966 51.0332 469.608 51.0332 c 0
EndSplineSet
Fore
847 599 m 0xd0
 847 562 838 496 644 413 c 1
 770 391 825 318 825 240 c 0
 825 189 802 137 760 96 c 0
 667 2 517 -22 410 -22 c 0
 314 -22 250 11 216 36 c 0
 212 38 211 42 211 47 c 0
 211 70 256 105 292 105 c 0
 298 105 303 104 307 101 c 0
 365 59 429 51 470 51 c 0
 592 51 662 81 688 107 c 0
 708 127 723 162 723 199 c 0xe0
 723 287 637 346 510 346 c 0
 467 346 438 339 428 339 c 0
 415 339 407 344 407 353 c 0
 407 364 422 394 466 408 c 0
 745 503 745 520 745 556 c 0
 745 604 702 635 641 635 c 0
 485 635 335 447 280 227 c 0
 263 157 233 88 192 21 c 0
 180 1 145 -22 116 -22 c 0
 103 -22 95 -16 95 -7 c 0
 95 10 148 70 179 194 c 0
 214 334 239 473 255 611 c 1
 232 600 l 2
 219 593 205 589 195 589 c 0
 184 589 174 594 174 605 c 0
 174 619 192 640 218 652 c 2
 302 695 l 2
 314 701 329 705 340 705 c 0
 352 705 361 701 361 690 c 0
 361 685 350 589 338 511 c 1
 487 688 650 709 701 709 c 0
 786 709 847 666 847 599 c 0xd0
EndSplineSet
EndChar
StartChar: C
Encoding: 67 67 4
Width: 779
Flags: W
HStem: -25 73<263 438> 632 73<392 637.5>
VStem: 80 102<160 340> 597 102<560.5 643.5>
Back
589.95 550.18 m 0
 601.702 576.584 596.883 598.402 590.517 609.43 c 0
 584.145 620.467 575.299 624.808 569.236 626.646 c 0
 556.934 630.379 544.113 632.131 531.713 632.131 c 0
 456.003 632.131 395.958 613.784 351.868 588.329 c 0
 264.016 537.606 213.72 444.745 192.024 357.966 c 0
 176.114 294.321 176.059 218.008 213.8 152.638 c 0
 263.486 66.5801 346.568 53.7041 368.438 50.6777 c 0
 442.267 40.4629 501.532 68.1943 528.383 83.6973 c 0
 559.296 101.545 582.625 122.948 598.749 140.298 c 0
 617.431 160.398 649.685 175.069 670.744 173.046 c 0
 691.805 171.021 693.735 153.065 675.054 132.965 c 0
 641.197 96.5352 600.101 63.624 555.005 37.5869 c 0
 498.063 4.71191 401.156 -36.1064 297.813 -21.8076 c 0
 193.106 -7.32031 139.379 54.1455 115.336 95.7891 c 0
 75.8281 164.219 71.9609 247.655 91.3467 325.199 c 0
 123.148 452.407 201.515 563.002 325.246 634.439 c 0
 410.182 683.478 501.917 705.328 591.414 705.328 c 0
 612.446 705.328 631.504 702.451 648.717 697.229 c 0
 668.317 691.281 681.003 680.096 688.98 666.278 c 0
 704.954 638.61 701.012 604.159 687.138 572.988 c 0
 673.474 542.289 656.484 511.941 636.143 482.344 c 0
 622.347 462.27 591.234 444.128 566.694 441.848 c 0
 542.155 439.567 533.436 454.009 547.231 474.082 c 0
 563.752 498.12 578.162 523.695 589.95 550.18 c 0
EndSplineSet
Fore
541 457 m 0
 541 474 597 536 597 585 c 0
 597 623 566 632 532 632 c 0
 252 632 182 383 182 279 c 0
 182 149 269 48 401 48 c 0
 475 48 546 83 599 140 c 0
 616 159 646 173 667 173 c 0
 681 173 688 167 688 158 c 0
 688 151 684 142 675 133 c 0
 595 47 468 -25 341 -25 c 0
 185 -25 80 84 80 236 c 0
 80 444 272 705 591 705 c 0
 684 705 699 659 699 628 c 0
 699 599 686 555 636 482 c 0
 624 465 591 442 562 442 c 0
 548 442 541 448 541 457 c 0
EndSplineSet
EndChar
StartChar: D
Encoding: 68 68 5
Width: 1079
Flags: W
HStem: 0 73<349 526> 610 73<393 674.5>
VStem: 917 102<311 520.5>
Back
352.569 325.198 m 0
 377.789 426.076 391.525 526.835 393.432 625.43 c 0
 393.751 641.942 416.856 664.791 445.007 676.429 c 0
 473.156 688.067 495.744 684.11 495.425 667.597 c 0
 493.464 566.184 479.343 462.348 453.247 357.966 c 0
 427.152 253.584 389.255 149.332 340.092 47.0537 c 0
 330.781 27.6836 301.663 7.30371 275.096 1.56152 c 0
 248.528 -4.18066 234.522 6.87988 243.832 26.249 c 0
 290.809 123.979 327.35 224.321 352.569 325.198 c 0
408.788 73.25 m 2
 552.484 73.25 681.938 105.158 768.359 155.055 c 0
 840.624 196.777 888.358 254.768 907.49 331.294 c 0
 924.054 397.549 918.08 448.702 895.111 488.485 c 0
 837.787 587.772 675.241 609.914 532.197 609.914 c 2
 414.577 609.914 l 2
 391.752 609.914 386.6 626.311 403.077 646.513 c 0
 419.555 666.716 451.453 683.112 474.278 683.112 c 2
 591.898 683.111 l 2
 776.625 683.111 933.851 648.779 993.575 545.334 c 0
 1020.28 499.078 1026.94 439.138 1008.17 364.062 c 0
 981.772 258.478 903.125 171.382 794.981 108.945 c 0
 655.032 28.1445 487.295 0.0527344 349.088 0.0527344 c 2
 211.038 0.0527344 l 2
 188.212 0.0527344 183.061 16.4482 199.538 36.6514 c 0
 216.016 56.8535 247.913 73.25 270.739 73.25 c 2
 408.788 73.25 l 2
218.958 577.197 m 0
 214.39 574.561 204.665 568.392 196.442 556.417 c 0
 191.212 548.801 185.814 537.922 182.345 524.044 c 0
 177.828 505.979 151.611 483.978 123.824 474.934 c 0
 96.0371 465.89 77.1504 473.212 81.667 491.277 c 0
 88.2471 517.599 99.5166 536.485 107.503 548.116 c 0
 137.117 591.244 182.831 617.82 192.336 623.308 c 0
 204.93 630.579 200.525 627.895 202.591 628.994 c 0
 251.134 654.84 330.232 683.111 474.278 683.112 c 0
 497.104 683.112 502.257 666.716 485.779 646.513 c 0
 469.302 626.311 437.403 609.914 414.578 609.914 c 0
 321.204 609.914 255.886 596.923 221.933 578.846 c 0
 220.734 578.208 222.718 579.368 218.958 577.197 c 0
EndSplineSet
Fore
917 396 m 0
 917 524 817 610 532 610 c 2
 493 610 l 1
 480 398 417 213 352 73 c 1
 409 73 l 2
 552 73 682 105 768 155 c 0
 877 218 917 317 917 396 c 0
1019 444 m 0
 1019 178 703 0 349 0 c 2
 211 0 l 2
 197 0 190 6 190 15 c 0
 190 38 233 70 265 73 c 1
 328 215 386 400 393 610 c 1
 343 609 228 602 196 556 c 0
 191 549 186 538 182 524 c 0
 176 498 131 471 102 471 c 0
 89 471 81 477 81 486 c 0
 81 511 113 578 192 623 c 2
 203 629 l 2
 250 654 328 683 476 683 c 2
 592 683 l 2
 884 683 1019 597 1019 444 c 0
EndSplineSet
EndChar
StartChar: E
Encoding: 69 69 6
Width: 768
Flags: W
HStem: -22 73<278.5 424.5> 339 73<425.5 536.5> 632 73<466.5 624>
VStem: 93 102<55.5 155.5> 213 102<442.5 528> 622 103<576.5 655>
Back
616.195 565.979 m 2
 619.021 570.841 619.097 570.806 620.139 573.788 c 0
 621.284 577.068 620.775 575.658 621.168 577.29 c 0
 624.193 589.854 619.8 600.422 617.21 604.907 c 0
 614.49 609.617 606.999 619.282 593.441 622.589 c 0
 567.21 628.985 539.865 632.13 512.259 632.13 c 0
 490.365 632.13 413.894 629.411 363.927 600.562 c 0
 352.755 594.112 344.471 587.096 337.322 578.181 c 0
 330.023 569.076 322.515 555.896 318.195 538.619 c 0
 313.105 518.259 313.268 497.469 324.325 478.315 c 0
 351.42 431.388 435.803 412.342 529.522 412.342 c 0
 552.348 412.342 557.5 395.945 541.022 375.742 c 0
 524.545 355.54 492.646 339.144 469.821 339.144 c 0
 371.381 339.144 262.72 357.628 225.861 421.467 c 0
 213.001 443.742 209.003 471.793 217.518 505.853 c 0
 223.647 530.371 235.309 554.102 253.896 577.284 c 0
 274.76 603.306 305.019 628.032 337.305 646.673 c 0
 418.028 693.279 507.759 705.328 571.96 705.328 c 0
 606.631 705.328 639.446 701.414 670.149 693.927 c 0
 692.56 688.462 707.055 676.685 715.674 661.756 c 0
 723.857 647.582 726.763 630.468 721.95 610.48 c 0
 721.536 608.761 720.507 604.989 719.36 601.709 c 0
 715.551 590.804 714.27 590.295 704.107 572.81 c 2
 703.621 572.125 l 2
 689.325 552.009 658.04 534.166 633.788 532.298 c 0
 609.536 530.43 601.456 545.238 615.752 565.354 c 2
 616.195 565.979 l 2
291.716 295.028 m 0
 242.891 266.839 210.606 225.492 198.068 175.34 c 0
 192.171 151.75 194.887 131.969 204.527 115.27 c 0
 229.643 71.7705 302.105 51.0342 383.434 51.0342 c 0
 447.631 51.0342 497.374 75.0977 521.342 88.9365 c 0
 544.646 102.391 567.56 119.691 589.73 142.141 c 0
 609.457 162.112 641.767 175.854 661.853 172.812 c 0
 681.938 169.771 682.229 151.094 662.503 131.121 c 0
 635.34 103.619 597.619 71.4951 547.964 42.8262 c 0
 469.438 -2.51074 390.162 -22.1641 323.733 -22.1641 c 0
 241.589 -22.1641 141.789 -3.45605 106.064 58.4209 c 0
 93.1465 80.7939 88.9414 108.776 97.3906 142.572 c 0
 117.382 222.538 180.391 292.234 265.094 341.139 c 0
 351.845 391.225 447.916 412.342 529.522 412.342 c 0
 552.348 412.342 557.5 395.945 541.022 375.742 c 0
 524.545 355.54 492.647 339.144 469.821 339.144 c 0
 398.014 339.144 334.941 319.985 291.716 295.028 c 0
EndSplineSet
Fore
609 548 m 0
 609 561 622 567 622 586 c 0
 622 614 600 632 512 632 c 0
 494 632 379 630 337 578 c 0
 325 563 315 539 315 515 c 0
 315 426 454 412 530 412 c 0
 543 412 551 406 551 397 c 0
 551 374 505 339 470 339 c 0
 381 339 231 306 198 175 c 0
 196 167 195 159 195 152 c 0
 195 84 278 51 383 51 c 0
 466 51 538 90 590 142 c 0
 608 160 636 173 656 173 c 0
 670 173 677 167 677 158 c 0
 677 151 672 141 663 131 c 0
 586 53 459 -22 324 -22 c 0
 233 -22 93 3 93 108 c 0
 93 159 134 282 306 362 c 1
 253 381 213 414 213 471 c 0
 213 585 361 705 572 705 c 0
 676 705 725 678 725 632 c 0
 725 580 676 533 631 533 c 0
 618 533 609 538 609 548 c 0
EndSplineSet
EndChar
StartChar: F
Encoding: 70 70 7
Width: 987
Flags: W
HStem: -38 73<173.5 288> 294 73<535 863> 610 73<492 959.5>
VStem: 948 102<593 657.5>
Back
295.187 35.2607 m 0
 297.212 35.3643 300.257 35.3418 303.339 37.1211 c 0
 308.44 40.0664 314.838 46.5732 317.154 49.0537 c 0
 322.82 55.1201 329.162 63.3184 334.792 72.5537 c 0
 383.034 151.681 424.252 233.86 457.621 317.775 c 0
 498.299 420.069 526.05 524.306 539.955 627.619 c 0
 542.283 644.922 566.943 667.429 594.998 677.857 c 0
 623.054 688.287 643.934 682.709 641.604 665.406 c 0
 627.215 558.493 598.473 450.231 555.899 343.171 c 0
 521.089 255.634 477.914 169.42 426.858 85.6777 c 0
 417.796 70.8145 406.824 56.0283 393.183 41.4238 c 0
 378.707 25.9248 357.659 7.00195 329.961 -8.98926 c 0
 298.15 -27.3555 268.781 -36.3643 240.562 -37.8047 c 0
 163.702 -41.7285 105.289 -10.999 74.8828 39.7197 c 0
 67.3252 52.3242 83.2012 75.3682 110.32 91.1562 c 0
 137.438 106.943 165.581 109.527 173.138 96.9219 c 0
 200.792 50.7959 249.689 32.9375 295.187 35.2607 c 0
947.838 598.628 m 0
 945.793 602.171 945.385 600.92 944.603 601.363 c 0
 933.471 607.671 909.887 609.914 851.814 609.913 c 2
 491.801 609.913 l 2
 433.322 609.913 392.708 594.804 372.493 583.132 c 0
 359.254 575.488 351.751 567.323 348.369 563.327 c 0
 340.916 554.519 333.051 541.462 328.696 524.044 c 0
 324.18 505.979 297.963 483.977 270.176 474.933 c 0
 242.389 465.89 223.502 473.211 228.019 491.276 c 0
 234.34 516.563 246.978 541.275 267.312 565.307 c 0
 294.625 597.584 328.551 619.242 345.871 629.242 c 0
 416.891 670.246 494.28 683.111 551.502 683.111 c 2
 911.516 683.111 l 2
 991.274 683.111 1016.37 677.534 1032.46 668.416 c 0
 1038.16 665.188 1043.08 661.062 1046.3 655.477 c 0
 1050.75 647.777 1050.8 639.413 1048.75 631.228 c 0
 1044.24 613.162 1018.02 591.16 990.233 582.116 c 0
 962.446 573.072 943.56 580.395 948.076 598.46 c 0
 948.191 598.922 948.244 597.925 947.838 598.628 c 0
803.634 293.974 m 1
 476.99 293.975 l 2
 454.227 293.975 449.088 310.326 465.521 330.474 c 0
 481.954 350.622 513.767 366.974 536.53 366.974 c 2
 863.174 366.974 l 2
 879.551 366.974 886.847 359.775 883.607 346.814 c 2
 880.762 335.428 l 2
 876.26 317.412 850.114 295.47 822.401 286.449 c 0
 794.689 277.43 775.853 284.73 780.354 302.746 c 2
 783.2 314.133 l 1
 796.834 323.141 812.476 325.936 818.115 320.372 c 0
 823.755 314.809 817.268 302.981 803.634 293.974 c 1
EndSplineSet
Fore
1050 642 m 0
 1050 606 995 578 967 578 c 0
 948 578 948 589 948 597 c 0
 948 607 911 610 852 610 c 2
 633 610 l 1
 619 532 596 450 565 367 c 1
 863 367 l 2
 877 367 884 362 884 352 c 2
 884 347 l 1
 881 335 l 2
 874 310 829 283 801 283 c 0
 790 283 782 287 780 294 c 1
 535 294 l 1
 505 225 469 156 427 86 c 0
 390 25 317 -38 228 -38 c 0
 119 -38 73 35 73 47 c 0
 73 70 119 105 154 105 c 0
 163 105 170 102 173 97 c 0
 204 46 258 35 286 35 c 0
 287 35 287 35 288 35 c 0
 299 35 312 36 335 73 c 0
 428 225 507 410 537 610 c 1
 492 610 l 2
 457 610 382 602 348 563 c 0
 341 555 333 541 329 524 c 0
 322 498 277 471 249 471 c 0
 236 471 227 477 227 486 c 0
 227 512 262 581 346 629 c 0
 417 670 494 683 552 683 c 2
 912 683 l 2
 1007 683 1050 673 1050 642 c 0
EndSplineSet
EndChar
StartChar: G
Encoding: 71 71 8
Width: 847
Flags: W
HStem: -119 73<322.5 438> 68 73<286.5 472.5> 632 73<402.5 658.5>
VStem: 110 102<229 379> 674 102<564 657.5>
Back
667.854 561.242 m 0
 673.546 570.346 677.961 587.456 668.92 603.114 c 0
 662.372 614.455 652.676 618.673 646.175 620.308 c 0
 614.691 628.223 581.745 632.131 548.353 632.131 c 0
 498.146 632.131 417.368 625.084 349.841 586.097 c 0
 279.211 545.318 238.222 476.192 219.982 403.234 c 0
 204.526 341.409 212.372 283.226 238.602 237.795 c 0
 272.311 179.41 333.209 145.199 404.518 141.514 c 0
 445.124 139.415 493.183 147.448 539.229 174.033 c 0
 599.975 209.105 639.858 266.871 654.44 325.198 c 0
 658.956 343.264 685.174 365.266 712.961 374.31 c 0
 740.748 383.353 759.635 376.031 755.118 357.966 c 0
 733.293 270.664 665.522 185.47 565.851 127.923 c 0
 491.446 84.9658 410.476 64.8027 340.283 68.4307 c 0
 245.08 73.3516 175.932 118.95 140.138 180.946 c 0
 110.441 232.381 101.092 297.617 119.305 370.467 c 0
 128.279 406.365 163.456 539.967 323.219 632.207 c 0
 414.325 684.808 514.47 705.329 608.055 705.329 c 0
 648.706 705.328 687.234 700.609 723.259 691.553 c 0
 741.771 686.898 757.5 677.082 767.384 659.963 c 0
 777.916 641.721 782.645 610.702 759.328 573.407 c 0
 742.105 545.858 720.533 518.938 694.213 493.482 c 0
 673.702 473.647 641.406 460.661 622.123 464.496 c 0
 602.84 468.33 603.835 487.54 624.346 507.376 c 0
 640.121 522.632 655.116 540.868 667.854 561.242 c 0
420.176 -46.1641 m 0
 424.721 -46.1641 437.022 -45.9189 449.479 -43.0791 c 0
 458.729 -40.9697 466.451 -38.082 474.642 -33.3535 c 0
 497.017 -20.4346 474.963 -33.5352 481.742 -28.8398 c 0
 537.593 9.8418 603.151 120.045 654.44 325.198 c 0
 658.956 343.264 685.174 365.266 712.961 374.31 c 0
 740.748 383.353 759.635 376.031 755.118 357.966 c 0
 689.886 97.0342 605.759 -8.48438 525.011 -64.4102 c 0
 517.431 -69.6602 509.488 -74.7148 501.264 -79.4639 c 0
 470.354 -97.3096 440.486 -107.627 417.516 -112.864 c 0
 397.79 -117.362 378.888 -119.362 360.476 -119.362 c 0
 284.547 -119.362 213.601 -107.058 149.472 -83.459 c 0
 132.749 -77.3057 137.558 -56.6943 160.205 -37.4512 c 0
 182.853 -18.209 214.804 -7.58594 231.526 -13.7393 c 0
 290.366 -35.3916 354.403 -46.1641 420.176 -46.1641 c 0
EndSplineSet
Fore
608 705 m 0
 709 705 776 689 776 626 c 0
 776 610 771 592 759 573 c 0
 703 484 655 464 630 464 c 0
 616 464 608 469 608 479 c 0
 608 505 674 541 674 587 c 0
 674 607 658 617 646 620 c 0
 615 628 582 632 548 632 c 0
 257 632 212 417 212 341 c 0
 212 221 299 141 417 141 c 0
 528 141 628 218 654 325 c 0
 661 351 706 378 735 378 c 0
 748 378 756 373 756 363 c 0
 756 361 756 360 755 358 c 1
 666 0 515 -119 360 -119 c 0
 285 -119 214 -107 149 -83 c 0
 142 -81 139 -76 139 -71 c 0
 139 -49 185 -12 219 -12 c 0
 239 -12 297 -46 420 -46 c 0
 456 -46 522 -40 598 148 c 1
 526 98 438 68 357 68 c 0
 216 68 110 160 110 298 c 0
 110 321 113 345 119 370 c 0
 174 588 388 705 608 705 c 0
EndSplineSet
EndChar
StartChar: H
Encoding: 72 72 9
Width: 1190
Flags: W
HStem: -56 73<817 931> 271 73<277 392 463 821> 610 73<327.5 462>
VStem: 427 102<540 632> 759 102<0.5 93>
Back
398.428 369.793 m 0
 414.24 433.047 423.854 496.249 427.103 558.428 c 0
 427.649 568.892 425.33 578.629 420.699 586.649 c 0
 410.457 604.39 391.847 609.922 379.887 609.914 c 0
 317.515 609.874 276.79 597.604 248.894 581.497 c 0
 231.819 571.639 205.379 552.201 175.828 510.894 c 0
 161.432 490.771 130.113 472.989 105.921 471.204 c 0
 81.7285 469.42 73.7783 484.303 88.1748 504.427 c 0
 118.322 546.567 160.707 592.062 222.271 627.606 c 0
 259.666 649.197 330.362 683.041 439.527 683.111 c 0
 450.402 683.118 496.926 682.014 519.163 643.498 c 0
 526.297 631.142 529.938 616.363 529.053 599.406 c 0
 525.673 534.735 515.674 468.833 499.105 402.561 c 0
 466.027 270.249 421.249 138.07 365.21 7.50684 c 0
 357.005 -11.6084 328.49 -32.4287 301.561 -38.9658 c 0
 274.631 -45.5039 259.434 -35.2959 267.639 -16.1797 c 0
 322.239 111.033 366.034 240.222 398.428 369.793 c 0
890.987 262.817 m 0
 874.643 197.44 864.609 132.117 861.048 67.8213 c 0
 860.459 57.1895 862.795 47.248 867.465 39.1602 c 0
 877.202 22.2939 894.797 16.7471 906.254 17.1973 c 0
 940.591 18.5488 964.177 21.7393 979.812 25.9463 c 0
 990.212 28.7451 988.334 28.5967 988.536 28.7129 c 1
 984.413 26.333 982.608 24.1611 982.394 23.835 c 1
 982.849 24.5273 984.38 27.2539 985.481 31.6582 c 0
 989.998 49.7236 1016.21 71.7256 1044 80.7695 c 0
 1071.79 89.8125 1090.68 82.4912 1086.16 64.4258 c 0
 1083.73 54.6914 1079.63 44.7432 1072.63 34.0723 c 0
 1053.52 4.93457 1021.64 -13.6553 1015.16 -17.3975 c 0
 992.562 -30.4424 971.346 -37.6465 954.196 -42.2607 c 0
 910.299 -54.0723 860.172 -55.5391 850.411 -55.9229 c 0
 804.796 -57.7178 779.939 -36.6348 769.001 -17.6885 c 0
 761.783 -5.1875 758.154 9.80176 759.104 26.958 c 0
 762.802 93.7148 773.222 161.7 790.309 230.05 c 0
 824.171 365.499 869.729 500.815 926.546 634.55 c 0
 934.657 653.643 963.119 674.498 990.077 681.102 c 0
 1017.04 687.705 1032.33 677.568 1024.22 658.476 c 0
 968.784 527.995 924.181 395.592 890.987 262.817 c 0
277.399 270.923 m 2
 254.635 270.923 249.496 287.274 265.93 307.423 c 0
 282.362 327.57 314.175 343.923 336.938 343.923 c 2
 835.393 343.922 l 2
 858.157 343.922 863.296 327.569 846.862 307.422 c 0
 830.43 287.273 798.617 270.922 775.854 270.922 c 2
 277.399 270.923 l 2
EndSplineSet
Fore
265 -26 m 0
 265 -14 318 87 372 271 c 1
 277 271 l 2
 264 271 256 277 256 286 c 0
 256 309 302 344 337 344 c 2
 392 344 l 1
 413 429 427 518 427 562 c 0
 427 594 401 610 380 610 c 0
 275 610 224 578 176 511 c 0
 159 488 124 471 102 471 c 0
 88 471 81 477 81 486 c 0
 81 491 83 498 88 504 c 0
 159 603 272 683 440 683 c 0
 484 683 529 659 529 605 c 0
 529 553 511 446 484 344 c 1
 821 344 l 1
 864 488 915 607 927 635 c 0
 936 656 974 683 1005 683 c 0
 1018 683 1026 677 1026 668 c 0
 1026 665 1026 662 1024 658 c 0
 890 342 861 122 861 64 c 0
 861 31 887 17 905 17 c 0
 928 17 968 22 983 27 c 1
 995 61 1037 85 1066 85 c 0
 1079 85 1087 79 1087 69 c 0
 1087 33 1017 -56 845 -56 c 0
 789 -56 759 -21 759 22 c 0
 759 70 776 177 802 277 c 1
 793 273 784 271 776 271 c 2
 463 271 l 1
 422 140 376 33 365 8 c 0
 356 -14 318 -41 287 -41 c 0
 273 -41 265 -35 265 -26 c 0
EndSplineSet
EndChar
StartChar: I
Encoding: 73 73 10
Width: 816
Flags: HW
HStem: 0 73<76 590> 610 73<436 817>
Back
459.217 609.914 m 2
 353.165 609.914 266.86 607.723 216.011 589.188 c 0
 210.007 587 206.293 585.123 204.604 584.148 c 0
 199.634 581.278 195.259 573.611 192.585 562.917 c 0
 188.069 544.852 161.852 522.85 134.064 513.807 c 0
 106.277 504.763 87.3906 512.084 91.9072 530.149 c 0
 96.7275 549.433 113.239 592.879 177.982 630.259 c 0
 194.204 639.624 210.308 646.729 225.702 652.34 c 0
 286.819 674.617 352.991 683.111 518.918 683.111 c 2
 817.232 683.111 l 2
 840.059 683.111 845.211 666.715 828.733 646.513 c 0
 812.256 626.311 780.357 609.914 757.531 609.914 c 2
 459.217 609.914 l 2
597.253 609.044 m 1
 597.246 609.04 594.563 607.836 586.691 598.234 c 0
 547.352 550.253 522.237 455.363 497.888 357.966 c 0
 460.278 207.528 416.025 126.439 363.006 74.7402 c 0
 347.815 59.9277 329.141 44.9492 306.968 32.1475 c 0
 267.783 9.52441 229.244 0.0527344 194.88 0.0527344 c 0
 172.055 0.0527344 166.902 16.4492 183.38 36.6523 c 0
 199.857 56.8545 231.756 73.251 254.582 73.251 c 0
 257.876 73.251 271.749 73.2949 280.346 78.2578 c 0
 282.511 79.5078 286.557 82.2178 292.601 88.1113 c 0
 328.689 123.302 366.001 200.365 397.209 325.198 c 0
 430.217 457.227 455 538.484 504.216 598.512 c 0
 519.649 617.336 540.615 637.824 570.631 655.154 c 0
 583.15 662.382 597.924 669.424 614.941 674.738 c 0
 631.591 679.938 649.553 683.111 668.075 683.111 c 0
 690.9 683.111 696.053 666.715 679.575 646.513 c 0
 663.098 626.31 631.199 609.914 608.373 609.914 c 0
 600.265 609.914 596.465 608.61 596.375 608.582 c 0
 595.906 608.436 596.964 608.877 597.253 609.044 c 1
590.113 73.1514 m 2
 620.661 73.1514 642.277 75.7148 656.529 79.3525 c 0
 664.178 81.3047 664.116 81.5752 664.169 81.6055 c 1
 660.754 79.6338 658.768 77.7393 658.432 77.2236 c 1
 659.63 79.0625 660.977 82.1553 661.971 86.1309 c 0
 666.476 104.147 692.622 126.09 720.334 135.108 c 0
 748.046 144.128 766.882 136.825 762.377 118.81 c 0
 759.856 108.725 755.663 98.5361 748.605 87.707 c 0
 729.417 58.2617 697.242 39.3867 690.72 35.6201 c 0
 667.842 22.4111 646.077 15.168 628.812 10.7607 c 0
 607.86 5.41309 575.496 0.151367 530.573 0.151367 c 2
 83.0889 0.151367 l 2
 60.3252 0.151367 55.1865 16.5039 71.6191 36.6514 c 0
 88.0527 56.7998 119.865 73.1514 142.629 73.1514 c 2
 590.113 73.1514 l 2
EndSplineSet
Fore
62 15 m 0
 62 38 107 73 143 73 c 2
 255 73 l 2
 277 73 284.964 80.0359 293 88 c 0
 405.502 199.502 392 475 514 610 c 1
 459 610 l 2
 357 610 245 607 205 584 c 0
 190 576 198 535 134 514 c 0
 126 511 119 510 112 510 c 0
 99 510 91 515 91 525 c 0
 91 548 125 616 226 652 c 0
 287 675 353 683 519 683 c 2
 817 683 l 2
 831 683 838 677 838 668 c 0
 838 645 793 610 758 610 c 2
 608 610 l 2
 601 610 597 609 597 609 c 1
 595 608 592 605 587 598 c 0
 498 490 506 213 361 73 c 1
 590 73 l 2
 610 73 644 75 659 80 c 1
 675 126 725 139 742 139 c 0
 755 139 763 134 763 124 c 0
 763 100 718 0 531 0 c 2
 83 0 l 2
 69 0 62 6 62 15 c 0
EndSplineSet
EndChar
StartChar: J
Encoding: 74 74 11
Width: 955
Flags: HW
HStem: -119 73<282 461.5> 610 73<671.5 1039>
VStem: 110 102<-13 93>
Back
707.08 609.914 m 2
 639.417 609.914 579.679 591.95 541.401 569.851 c 0
 506.62 549.77 474.647 517.775 462.131 467.706 c 0
 457.614 449.641 431.396 427.64 403.609 418.596 c 0
 375.822 409.552 356.937 416.874 361.452 434.939 c 0
 379.327 506.438 435.273 570.057 514.779 615.961 c 0
 598.228 664.14 691.799 683.111 766.781 683.111 c 2
 1039.02 683.111 l 2
 1061.84 683.111 1066.99 666.715 1050.52 646.513 c 0
 1034.04 626.311 1002.14 609.914 979.315 609.914 c 2
 707.08 609.914 l 2
923.192 597.331 m 0
 897.648 582.583 922.571 597.865 912.542 590.134 c 0
 830.122 526.597 779.941 352.928 729.964 153.015 c 0
 709.679 71.874 645.98 -5.89453 553.172 -59.4775 c 0
 484.062 -99.3789 409.093 -119.362 342.893 -119.362 c 0
 255.229 -119.362 164.874 -91.4463 127.146 -26.0977 c 0
 110.471 2.78223 104.773 38.46 115.362 80.8154 c 0
 119.878 98.8799 146.096 120.882 173.883 129.926 c 0
 201.67 138.969 220.557 131.647 216.04 113.582 c 0
 208.137 81.9697 212.137 54.0859 225.609 30.751 c 0
 255.053 -20.2471 326.318 -46.1641 402.594 -46.1641 c 0
 451.145 -46.1641 493.769 -32.2949 526.551 -13.3682 c 0
 580.514 17.7881 616.139 67.6592 629.285 120.247 c 0
 703.547 417.296 755.377 538.28 859.872 618.835 c 0
 871.152 627.53 883.478 635.882 896.57 643.441 c 0
 927.739 661.437 958.071 671.666 981.216 676.785 c 0
 1001.09 681.183 1020.19 683.111 1039.02 683.111 c 0
 1061.84 683.111 1066.99 666.715 1050.52 646.513 c 0
 1034.04 626.311 1002.14 609.914 979.315 609.914 c 0
 974.662 609.914 961.451 609.694 948.232 606.771 c 0
 946.481 606.383 934.806 604.037 923.192 597.331 c 0
EndSplineSet
Fore
217 119 m 0
 217 111 212 104 212 82 c 0
 212 2 296 -46 403 -46 c 0
 520 -46 607 32 629 120 c 0
 671 287 719 499 848 610 c 1
 707 610 l 2
 639 610 580 592 541 570 c 0
 507 550 475 518 462 468 c 0
 456 442 410 415 382 415 c 0
 369 415 361 420 361 430 c 2
 361 435 l 1
 395 571 576 683 767 683 c 2
 1039 683 l 2
 1053 683 1060 677 1060 668 c 0
 1060 645 1015 610 979 610 c 0
 968 610 943 609 923 597 c 2
 913 591 l 2
 830 528 780 353 730 153 c 0
 693 5 512 -119 343 -119 c 0
 221 -119 110 -65 110 39 c 0
 110 131 190 134 196 134 c 0
 209 134 217 128 217 119 c 0
EndSplineSet
EndChar
StartChar: K
Encoding: 75 75 12
Width: 1051
Flags: W
HStem: -22 63<682 792> 642 63<770.5 870>
VStem: 259 102<579 684.5> 329 79<353.5 458.5> 850 80<596.5 659.5>
Back
228.529 390.632 m 0
 247.212 465.36 257.326 540.015 258.623 613.032 c 1
 232.282 599.743 l 2
 204.422 585.688 178.528 586.057 174.483 600.568 c 0
 170.438 615.08 189.766 638.265 217.626 652.32 c 2
 302.256 695.018 l 2
 317.557 702.737 330.98 706.116 342.731 705.204 c 0
 354.481 704.293 360.401 699.413 360.58 690.492 c 0
 362.32 603.573 351.813 513.823 329.207 423.399 c 0
 295.96 290.409 251.013 157.553 194.807 26.3047 c 0
 186.623 7.19434 158.12 -13.6328 131.185 -20.1855 c 0
 104.248 -26.7373 89.0293 -16.5449 97.2129 2.56543 c 0
 151.993 130.484 195.964 260.368 228.529 390.632 c 0
848.264 625.707 m 0
 845.026 631.314 834.399 642.324 812.298 642.324 c 0
 766.158 642.324 631.059 590.027 525.342 528.991 c 0
 464.418 493.816 427.14 463.581 413.639 445.094 c 0
 410.237 440.437 408.621 437.2 408.273 435.056 c 0
 403.6 406.222 437.297 341.717 457.14 307.348 c 0
 505.144 224.201 639.39 45.0596 715.7 40.8789 c 0
 715.966 40.8643 653.427 40.8398 717.047 40.8398 c 0
 775.517 40.8398 820.118 51.8945 845.373 66.4756 c 0
 857.231 73.3223 871.422 84.4893 877.257 107.827 c 0
 881.507 124.826 902.312 141.574 923.697 145.21 c 0
 945.083 148.847 958.99 138.001 954.74 121.002 c 0
 950.223 102.929 935.354 56.998 871.973 20.4043 c 0
 811.59 -14.458 737.694 -22.1445 685.781 -22.1445 c 0
 622.161 -22.1455 680.133 -21.9922 680.046 -21.9873 c 0
 568.475 -15.875 428.801 184.642 382.753 264.4 c 0
 336.642 344.269 324.49 386.864 330.789 421.881 c 0
 332.944 433.857 340.402 446.181 348.763 457.628 c 0
 367.503 483.29 408.473 522.945 498.742 575.063 c 0
 596.92 631.747 762.355 705.31 843.562 705.31 c 0
 882.476 705.31 910.176 690.261 922.65 668.654 c 0
 929.185 657.337 932.927 641.531 927.901 621.431 c 0
 923.651 604.432 902.846 587.684 881.461 584.048 c 0
 860.075 580.411 846.168 591.257 850.418 608.256 c 0
 852.278 615.699 850.698 621.49 848.264 625.707 c 0
EndSplineSet
Fore
339 705 m 0xe8
 361 705 361 697 361 672 c 0
 361 486 291 251 195 26 c 0
 186 5 148 -22 116 -22 c 0
 103 -22 95 -17 95 -7 c 0
 95 10 254 336 259 613 c 1
 232 600 l 2
 219 593 205 589 195 589 c 0
 184 589 174 594 174 605 c 0
 174 619 192 640 218 652 c 2
 302 695 l 2
 316 702 328 705 339 705 c 0xe8
930 640 m 0
 930 594 888 583 873 583 c 0
 859 583 850 591 850 602 c 0
 850 610 854 616 848 626 c 0
 845 631 834 642 812 642 c 0
 729 642 408 488 408 429 c 0
 408 346 619 46 716 41 c 0
 802 41 865 60 877 108 c 0
 882 127 907 146 932 146 c 0
 946 146 956 138 956 127 c 0
 956 97 902 -22 682 -22 c 0
 548 -15 329 303 329 404 c 0xd8
 329 429 337 441 349 458 c 0
 424 560 734 705 844 705 c 0
 896 705 930 679 930 640 c 0
EndSplineSet
EndChar
StartChar: L
Encoding: 76 76 13
Width: 959
Flags: W
HStem: -22 77<551.5 715> 27 77<223.5 371> 628 77<571.5 701.5>
VStem: 679 111<541 631>
Back
762.402 17.9805 m 0
 753.109 12.6152 709.639 -11.7822 656.747 -19.502 c 0
 644.845 -21.2393 633.455 -22.0566 622.531 -22.0566 c 0
 479.979 -22.0566 360.386 26.9316 228.8 26.9316 c 0
 223.572 26.9316 209.39 26.1777 199.467 20.4482 c 0
 196.931 18.9844 193.218 16.3604 188.837 12.167 c 0
 166.679 -9.0459 131.525 -24.2617 110.369 -21.7979 c 0
 89.2129 -19.333 90.0254 -0.117188 112.184 21.0957 c 0
 126.801 35.0898 146.845 51.3799 172.918 66.4336 c 0
 217.513 92.1807 262.868 104.306 299.7 104.306 c 0
 442.251 104.306 561.845 55.3184 693.432 55.3184 c 0
 699.615 55.3184 705.522 55.792 710.834 56.5674 c 0
 720.015 57.9072 730.426 60.832 735.854 63.9658 c 0
 741.735 67.3613 747.45 75.9668 750.819 83.7607 c 0
 751.771 85.96 753.107 89.1953 754.413 94.4209 c 0
 758.983 112.703 787.279 136.498 817.572 147.534 c 0
 847.866 158.57 868.742 152.689 864.172 134.407 c 0
 863.08 130.04 860.997 122.902 857.509 114.832 c 0
 852.277 102.732 830.362 57.2178 762.402 17.9805 c 0
668.756 587.884 m 0
 650.706 619.147 616.839 627.846 594.704 627.846 c 0
 589.871 627.846 577.207 627.634 563.901 624.554 c 0
 553.667 622.184 545.693 618.729 539.4 615.096 c 0
 520.744 604.324 536.268 613.79 527.315 606.942 c 0
 471.759 564.442 402.859 452.8 357.42 271.038 c 0
 339.007 197.388 294.7 80.5225 171.669 -1.4668 c 0
 143.347 -20.3418 110.881 -27.5518 99.2012 -17.5615 c 0
 87.5225 -7.57129 101.029 15.8545 129.352 34.7295 c 0
 168.453 60.7871 220.798 123.598 247.661 231.052 c 0
 302.911 452.053 387.979 569.663 470.475 632.771 c 0
 483.46 642.704 497.688 652.326 512.852 661.08 c 0
 542.698 678.312 575.343 691.288 604.989 698.152 c 0
 626.252 703.075 646.267 705.221 665.604 705.221 c 0
 721.049 705.221 758.675 681.044 776.534 650.11 c 0
 789.535 627.592 793.979 599.433 785.752 566.527 c 0
 781.182 548.244 752.887 524.449 722.593 513.413 c 0
 692.3 502.377 671.424 508.258 675.994 526.54 c 0
 681.595 548.943 678.709 570.644 668.756 587.884 c 0
EndSplineSet
Fore
675 522 m 0xb0
 675 527 679 533 679 549 c 0
 679 593 644 628 595 628 c 0
 548 628 528 607 527 607 c 0
 472 564 403 453 357 271 c 0
 346 225 325 163 281 103 c 1
 287 104 294 104 300 104 c 0x70
 442 104 562 55 693 55 c 0
 737 55 748 70 754 94 c 0
 760 117 809 153 845 153 c 0
 857 153 865 148 865 139 c 0
 865 138 865 136 864 134 c 0
 844 53 727 -22 623 -22 c 0xb0
 480 -22 360 27 229 27 c 0x70
 218 27 211 25 205 23 c 1
 160 -14 134 -22 117 -22 c 0
 104 -22 95 -19 95 -7 c 0
 95 14 142 47 153 54 c 1
 188 87 226 144 248 231 c 0
 355 661 582 705 666 705 c 0
 737 705 790 663 790 599 c 0
 790 589 789 578 786 567 c 0
 780 543 732 508 695 508 c 0
 683 508 675 513 675 522 c 0xb0
EndSplineSet
EndChar
StartChar: M
Encoding: 77 77 14
Width: 1563
Flags: HW
HStem: -57 108<195.5 256.5> -31 73<1295.5 1374> 685 20G<524.5 543 1381 1387>
VStem: 1235 102<106.5 203>
Back
712.994 273.561 m 0
 722.962 251.448 733.956 229.986 745.944 209.222 c 0
 764.881 176.422 786.298 145.365 810.061 116.246 c 1
 775.255 88.4287 l 1
 760.362 34.4951 l 1
 752.405 34.5137 745.855 36.6367 741.992 41.0244 c 0
 710.155 77.1855 682.023 116.409 657.814 158.341 c 0
 645.366 179.903 633.954 202.182 623.61 225.128 c 0
 579.133 323.793 539.512 425.276 504.845 529.313 c 1
 489.224 453.481 467.552 377.199 440.054 301.649 c 0
 432.021 279.582 423.498 257.581 414.495 235.675 c 0
 376.191 142.473 296.029 -62.1924 202.607 -56.6367 c 0
 181.935 -55.4072 162.213 -51.4199 143.865 -44.7422 c 0
 139.947 -43.3164 137.047 -42.1387 134.169 -40.9062 c 0
 120.278 -34.9561 107.803 -27.8906 97.9883 -19.2002 c 0
 86.3984 -8.93848 87.5566 22.1025 100.572 50.0879 c 0
 113.589 78.0742 133.558 92.459 145.147 82.1982 c 0
 155.641 72.9082 171.139 66.3633 174.205 65.0498 c 0
 176.702 63.9805 179.218 62.959 182.616 61.7217 c 0
 198.567 55.916 215.902 52.3965 234.093 51.3145 c 0
 275.906 48.8281 313.98 131.1 368.197 263.014 c 0
 375.97 281.924 383.302 300.854 390.196 319.797 c 0
 430.466 430.437 456.039 541.696 466.396 652.911 c 1
 466.559 652.86 l 1
 467.001 652.86 l 1
 466.848 666.902 482.852 685.59 505.454 696.728 c 0
 530.502 709.07 554.213 707.491 558.382 693.203 c 0
 600.611 548.472 652.229 408.357 712.994 273.561 c 0
1338.38 202.786 m 0
 1335.68 155.903 1338.3 110.098 1346.19 66.2236 c 0
 1346.88 62.3672 1348.16 58.915 1349.88 55.9229 c 0
 1356.65 44.1953 1369.62 41.7197 1374.49 42.0088 c 1
 1387.77 48.708 l 2
 1415.62 62.7637 1441.52 62.3945 1445.57 47.8828 c 0
 1449.61 33.3721 1430.28 10.1875 1402.42 -3.86914 c 2
 1386.6 -11.8535 l 2
 1368.18 -21.1436 1351.82 -26.1143 1338.77 -28.666 c 0
 1290.88 -38.0322 1263.05 -21.0713 1251.42 -0.925781 c 0
 1248.21 4.63477 1245.91 10.8945 1244.67 17.8398 c 0
 1236.37 64.0439 1233.58 112.348 1236.44 162.002 c 0
 1244.17 296.358 1260.52 432.188 1285.42 568.739 c 1
 1368.66 651.112 l 1
 1400.32 676.688 l 1
 1400.32 675.438 1400.18 674.12 1399.9 672.733 c 0
 1367.87 515.011 1347.3 357.951 1338.38 202.786 c 0
973.564 212.208 m 0
 909.866 151.808 843.503 94.4824 774.803 40.4707 c 0
 757.377 26.7705 743.436 37.1367 743.686 63.6094 c 0
 743.935 90.082 758.28 122.687 775.706 136.387 c 0
 842.312 188.752 906.433 244.161 967.706 302.262 c 0
 1102.71 430.271 1234.85 561.044 1364 694.424 c 0
 1381.24 712.227 1397.32 707.271 1399.89 683.362 c 0
 1402.46 659.454 1390.56 625.603 1373.32 607.8 c 0
 1242.98 473.188 1109.68 341.276 973.564 212.208 c 0
EndSplineSet
Fore
1425 59 m 0
 1436 59 1446 55 1446 44 c 0
 1446 29 1428 9 1402 -4 c 2
 1387 -12 l 2
 1363 -24 1337 -31 1312 -31 c 0
 1279 -31 1251 -17 1245 18 c 0
 1238 52 1235 88 1235 125 c 0
 1235 202 1253 377 1275 511 c 1
 974 212 l 2
 910 152 844 94 775 40 c 0
 769 36 764 34 759 34 c 0
 750 34 744 39 742 41 c 0
 694 95 655.151 156.068 624 225 c 0
 579.217 324.098 540 425 505 529 c 1
 480 409 444 306 414 236 c 0
 377 144 298 -57 206 -57 c 0
 185 -57 130 -47 98 -19 c 0
 92 -14 89 -5 89 5 c 0
 89 38 116 86 136 86 c 0
 145 86 176 51 236 51 c 0
 277 51 314.596 133.166 368 263 c 0
 428.542 410.188 456.699 543.99 466.699 652.99 c 0
 466.699 677.99 511 705 538 705 c 0
 548 705 556 702 558 693 c 0
 595 568 693 271 787 146 c 1
 850 195 910 248 968 302 c 2
 1364 694 l 2
 1371 702 1378 705 1384 705 c 0
 1390 705 1400 699 1400 677 c 0
 1400 653 1355 499 1338 203 c 0
 1338 191 1337 179 1337 168 c 0
 1337 111 1345 65 1350 56 c 0
 1357 44 1370 42 1374 42 c 1
 1388 49 l 2
 1401 56 1415 59 1425 59 c 0
EndSplineSet
EndChar
StartChar: N
Encoding: 78 78 15
Width: 1122
Flags: HW
HStem: -57 108<119.5 185> 683 109<1146 1220.5>
Back
1016.89 640.397 m 1
 1013.82 634.793 1008.27 622.093 1001.2 602.677 c 0
 987.643 565.432 972.444 514.064 960.738 474.135 c 0
 915.933 321.302 876.369 168.294 842.106 15.3379 c 1
 840.738 17.9814 l 1
 786.769 17.9814 l 1
 821.394 171.2 861.192 324.541 906.094 477.702 c 0
 917.935 518.092 933.731 572.44 951.341 620.823 c 0
 958.883 641.543 972.274 676.774 988.678 702.914 c 0
 995.917 714.45 1002.44 722.327 1008.52 728.115 c 0
 1076.14 792.496 1163.68 791.434 1215.22 791.434 c 0
 1230.58 791.434 1236.37 767.242 1228.14 737.434 c 0
 1219.91 707.626 1200.76 683.434 1185.4 683.434 c 0
 1106.72 683.433 1053.58 673.637 1016.89 640.397 c 1
105.955 64.8828 m 0
 108.221 63.9297 110.501 63.0146 113.577 61.8945 c 0
 129.821 55.9824 147.473 52.4043 165.996 51.3145 c 0
 199.847 49.3223 220.86 84.3506 252.758 171.985 c 0
 257.147 184.048 261.526 196.503 265.932 209.046 c 0
 317.82 356.775 348.742 505.357 357.815 652.86 c 1
 417.585 652.86 l 1
 406.285 522.438 377.519 366.588 316.706 193.464 c 0
 312.298 180.914 307.62 167.592 302.614 153.838 c 0
 264.35 48.707 211.678 -61.1768 134.527 -56.6377 c 0
 113.517 -55.4014 93.4736 -51.3545 74.8271 -44.5693 c 0
 71.2891 -43.2822 68.666 -42.2295 66.0605 -41.1328 c 0
 51.8564 -35.1523 39.082 -28.0234 29.0586 -19.2627 c 0
 17.4258 -9.0957 18.5166 21.8975 31.4932 49.918 c 0
 44.4707 77.9375 64.4434 92.4268 76.0771 82.2598 c 0
 86.877 72.8223 102.803 66.21 105.955 64.8828 c 0
679.61 238.81 m 0
 681.937 234.779 684.27 230.753 686.607 226.731 c 0
 728.655 154.413 778.791 87.9209 836.315 28.1465 c 0
 846.642 17.416 836.196 -3.90234 812.999 -19.4385 c 0
 789.802 -34.9756 762.594 -38.876 752.268 -28.1455 c 0
 693.117 33.3184 641.657 101.587 598.521 175.778 c 0
 596.168 179.824 593.821 183.874 591.48 187.929 c 0
 506.166 335.7 428.765 488.791 359.499 646.756 c 0
 353.62 660.163 368.896 681.835 393.599 695.131 c 0
 418.301 708.426 443.12 708.335 448.999 694.928 c 0
 517.858 537.888 594.805 385.699 679.61 238.81 c 0
EndSplineSet
Fore
428 705 m 0
 438 705 445.936 701.972 449 695 c 0
 518 538 595 386 680 239 c 2
 687 227 l 2
 719.499 171.288 757 118 799 69 c 1
 833 212 930.159 609.9 989 703 c 0
 1040.14 783.913 1153 792 1198 792 c 0
 1207 792 1214 791 1215 791 c 0
 1226 791 1232 780 1232 763 c 0
 1232 725 1205 683 1185 683 c 0
 1107 683 1054 674 1017 640 c 1
 987 586 893.943 255.723 840.943 17.7227 c 1
 840.943 -3.27734 803 -34 770 -34 c 0
 763 -34 756 -32 752 -28 c 0
 693 33 642 102 599 176 c 2
 591 188 l 2
 524 304 462 424 405 546 c 1
 389 440 362 322 317 193 c 2
 303 154 l 2
 265 51 214 -57 139 -57 c 0
 100 -57 54 -41 29 -19 c 0
 23 -14 20 -5 20 5 c 0
 20 38 47 86 67 86 c 0
 75 86 109 51 169 51 c 0
 201 51 222 87 253 172 c 2
 266 209 l 2
 318 357 349 505 358 653 c 0
 358 673 395 705 428 705 c 0
EndSplineSet
EndChar
StartChar: O
Encoding: 79 79 16
Width: 1084
Flags: W
HStem: -22 73<353 607.5> 632 73<638 835.5>
VStem: 121 102<183 383> 903 102<301.5 522>
Back
396.44 609.105 m 0
 327.896 569.53 258.178 492.549 233.072 392.126 c 0
 209.433 297.567 231.593 226.613 256.93 182.729 c 0
 305.524 98.5625 398.315 51.0342 506.566 51.0332 c 0
 586.691 51.0332 662.088 74.1582 722.18 108.853 c 0
 810.74 159.983 870.817 238.571 892.474 325.198 c 0
 912.083 403.637 903.203 478.549 871.02 534.293 c 0
 834.726 597.155 771.676 632.13 697.521 632.13 c 0
 661.334 632.13 634.792 620.694 617.122 610.493 c 0
 580.301 589.233 534.179 545.008 498.867 474.567 c 0
 489.11 455.104 459.76 434.913 433.354 429.498 c 0
 406.946 424.084 393.434 435.485 403.19 454.949 c 0
 439.477 527.333 501.013 604.938 590.5 656.604 c 0
 648.956 690.354 706.43 705.328 757.223 705.328 c 0
 860.623 705.328 931.399 657.103 969.483 591.142 c 0
 997.525 542.57 1019.37 462.852 993.152 357.966 c 0
 963.855 240.78 873.241 134.588 748.802 62.7422 c 0
 651.709 6.68457 544.449 -22.1641 446.865 -22.1641 c 0
 311.101 -22.1641 209.558 37.3887 158.466 125.88 c 0
 121.781 189.42 109.913 269.435 132.394 359.359 c 0
 159.593 468.155 242.57 581.748 369.818 655.216 c 0
 403.529 674.679 439.499 690.6 475.448 701.816 c 0
 503.127 710.452 521.42 702.639 516.281 684.375 c 0
 511.144 666.111 484.509 644.279 456.83 635.644 c 0
 433.624 628.402 413.493 618.951 396.44 609.105 c 0
EndSplineSet
Fore
1005 450 m 0
 1005 182 707 -22 447 -22 c 0
 259 -22 121 96 121 270 c 0
 121 460 280 641 475 702 c 0
 483 704 490 705 496 705 c 0
 509 705 517 700 517 690 c 0
 517 668 482 644 457 636 c 0
 321 593 223 452 223 314 c 0
 223 158 345 51 507 51 c 0
 708 51 903 196 903 407 c 0
 903 532 826 632 698 632 c 0
 578 632 510 496 499 475 c 0
 485 447 444 428 421 428 c 0
 408 428 400 434 400 443 c 0
 400 447 401 451 403 455 c 0
 473 595 616 705 757 705 c 0
 914 705 1005 594 1005 450 c 0
EndSplineSet
EndChar
StartChar: P
Encoding: 80 80 17
Width: 993
Flags: W
HStem: 205 73<462 581.5> 610 73<393 717>
VStem: 872 101<466.5 587>
Back
345.211 295.765 m 0
 372.9 406.521 389.086 517.151 393.443 625.802 c 0
 394.111 642.458 417.494 665.255 445.639 676.688 c 0
 473.782 688.12 496.081 683.881 495.413 667.225 c 0
 490.951 555.958 474.378 442.484 445.89 328.531 c 0
 417.4 214.578 377.153 100.758 325.652 -11.2256 c 0
 316.79 -30.4961 287.911 -51.0586 261.19 -57.126 c 0
 234.471 -63.1924 219.977 -52.4775 228.839 -33.207 c 0
 278.477 74.7246 317.522 185.009 345.211 295.765 c 0
218.958 577.197 m 0
 214.39 574.561 204.665 568.392 196.442 556.417 c 0
 191.212 548.801 185.814 537.922 182.345 524.044 c 0
 177.828 505.979 151.611 483.978 123.824 474.934 c 0
 96.0371 465.89 77.1504 473.212 81.667 491.277 c 0
 88.2471 517.599 99.5166 536.485 107.503 548.116 c 0
 137.117 591.244 182.831 617.82 192.336 623.308 c 0
 204.93 630.579 200.525 627.895 202.591 628.994 c 0
 251.134 654.84 330.232 683.111 474.278 683.112 c 0
 497.104 683.112 502.257 666.716 485.779 646.513 c 0
 469.302 626.311 437.403 609.914 414.578 609.914 c 0
 321.204 609.914 255.886 596.923 221.933 578.846 c 0
 221.734 578.74 269.333 606.282 218.958 577.197 c 0
778.676 333.464 m 0
 825.063 360.246 854.682 397.769 867.22 447.921 c 0
 875.176 479.747 871.809 505.104 859.75 525.99 c 0
 838.004 563.656 774.438 609.914 570.184 609.914 c 2
 414.577 609.914 l 2
 391.752 609.914 386.6 626.311 403.077 646.513 c 0
 419.555 666.716 451.453 683.112 474.278 683.112 c 2
 629.885 683.112 l 2
 760.417 683.111 910.423 665.614 958.214 582.839 c 0
 973.694 556.025 978.259 522.135 967.897 480.688 c 0
 947.961 400.94 887.563 334.852 805.297 287.354 c 0
 695.99 224.245 567.922 205.004 468.956 205.004 c 0
 446.131 205.004 440.979 221.4 457.456 241.604 c 0
 473.934 261.806 505.831 278.202 528.657 278.202 c 0
 633.716 278.202 723.76 301.759 778.676 333.464 c 0
EndSplineSet
Fore
448 220 m 0
 448 243 493 278 529 278 c 0
 634 278 724 302 779 333 c 0
 859 380 872 453 872 480 c 0
 872 584 722 610 570 610 c 2
 492 610 l 1
 474 375 405 162 326 -11 c 0
 316 -32 279 -59 247 -59 c 0
 234 -59 226 -53 226 -44 c 0
 226 -26 374 239 393 610 c 1
 311 608 251 594 220 578 c 0
 200 566 188 548 182 524 c 0
 176 498 131 471 102 471 c 0
 89 471 81 477 81 486 c 0
 81 512 116 579 192 623 c 2
 203 629 l 2
 251 655 330 683 474 683 c 2
 630 683 l 2
 804 683 973 651 973 523 c 0
 973 476 947 369 805 287 c 0
 696 224 568 205 469 205 c 0
 455 205 448 211 448 220 c 0
EndSplineSet
EndChar
StartChar: Q
Encoding: 81 81 18
Width: 1128
Flags: W
HStem: -134 73<693.5 889.5> -37 74<240.5 362.5> 103 73<350 525.5> 632 73<526 777>
VStem: 179 102<243 411> 893 102<340.5 519.5>
Back
596.215 70.1738 m 0
 638.279 82.5674 678.454 99.7314 714.3 120.428 c 0
 800.558 170.229 862.52 240.881 883.6 325.199 c 0
 904.677 409.507 884.795 472.724 862.202 511.854 c 0
 817.75 588.846 731.846 632.131 632.806 632.13 c 0
 557.974 632.13 487.453 610.645 433.155 579.295 c 0
 319.247 513.529 293.036 417.548 287.106 393.827 c 0
 275.11 345.845 281.448 301.699 302.024 266.061 c 0
 335.612 207.885 403.791 175.721 479.271 175.721 c 0
 528.731 175.721 577.708 185.307 623.396 202.2 c 0
 651.442 212.57 672.238 206.917 669.815 189.579 c 0
 667.392 172.241 642.662 149.754 614.615 139.383 c 0
 547.178 114.447 480.971 102.523 419.57 102.523 c 0
 317.855 102.523 240.114 145.899 203.561 209.212 c 0
 179.695 250.548 171.663 302.002 186.428 361.061 c 0
 212.651 465.952 293.387 560.079 406.533 625.405 c 0
 498.885 678.725 600.526 705.328 692.507 705.328 c 0
 844.344 705.328 926.261 628.293 960.665 568.703 c 0
 993.791 511.329 1004.61 439.29 984.277 357.966 c 0
 955.969 244.731 863.058 144.833 740.922 74.3174 c 0
 687.323 43.3721 630.53 19.5723 574.727 3.12988 c 0
 457.826 -31.3135 343.004 -36.5986 247.384 -36.5986 c 0
 224.559 -36.5986 219.406 -20.2021 235.884 0.000976562 c 0
 252.361 20.2031 284.26 36.5996 307.085 36.5996 c 0
 412.665 36.5986 505.094 43.3252 596.215 70.1738 c 0
854.093 -60.5996 m 0
 874.208 -60.5996 890.271 -56.9834 899.898 -53.9414 c 0
 907.26 -51.6152 912.379 -49.1865 915.581 -47.3379 c 0
 921.265 -44.0566 927.821 -38.4121 933.015 -26.375 c 0
 933.899 -24.3252 935.102 -21.4746 936.375 -16.3838 c 0
 940.891 1.68164 967.108 23.6836 994.896 32.7275 c 0
 1022.68 41.7715 1041.57 34.4492 1037.05 16.3838 c 0
 1036 12.1826 1033.93 5.05664 1030.53 -2.8125 c 0
 1010.51 -49.2266 966.05 -79.6807 942.203 -93.4482 c 0
 921.97 -105.13 901.414 -113.754 881.938 -119.907 c 0
 854.355 -128.623 824.879 -133.797 794.392 -133.797 c 0
 592.807 -133.797 435.27 -36.5986 247.384 -36.5986 c 0
 224.559 -36.5986 219.406 -20.2021 235.884 0 c 0
 252.361 20.2031 284.26 36.5996 307.085 36.5996 c 0
 508.67 36.5996 666.208 -60.5996 854.093 -60.5996 c 0
EndSplineSet
Fore
995 439 m 0
 995 242 806 64 553 -3 c 1
 652 -30 748 -61 854 -61 c 0
 925 -61 933 -29 936 -16 c 0
 943 9 988 37 1017 37 c 0
 1030 37 1038 31 1038 21 c 0
 1038 20 1038 18 1037 16 c 0
 1015 -73 894 -134 794 -134 c 0
 593 -134 435 -37 247 -37 c 0
 234 -37 226 -31 226 -21 c 0
 226 2 272 37 307 37 c 0
 418 37 578 42 714 120 c 0
 838 192 893 297 893 393 c 0
 893 520 796 632 633 632 c 0
 419 632 281 476 281 346 c 0
 281 244 369 176 479 176 c 0
 572 176 624 207 649 207 c 0
 662 207 670 202 670 192 c 0
 670 138 512 103 420 103 c 0
 280 103 179 183 179 303 c 0
 179 496 425 705 693 705 c 0
 861 705 995 600 995 439 c 0
EndSplineSet
EndChar
StartChar: R
Encoding: 82 82 19
Width: 1192
Flags: W
HStem: -22 73<781 967.5> 273 74<526.5 650.5> 610 73<393 665>
VStem: 868 102<445 615.5>
Back
349.793 314.091 m 0
 375.945 418.697 390.604 523.183 393.436 625.577 c 0
 393.894 642.147 417.109 664.976 445.258 676.532 c 0
 473.406 688.089 495.879 684.02 495.421 667.449 c 0
 492.515 562.315 477.468 454.846 450.471 346.857 c 0
 423.474 238.869 384.691 131.011 334.651 25.0742 c 0
 325.521 5.74414 296.497 -14.7109 269.867 -20.583 c 0
 243.237 -26.4561 229.035 -15.5342 238.166 3.79688 c 0
 286.153 105.386 323.642 209.483 349.793 314.091 c 0
218.958 577.197 m 0
 214.39 574.561 204.665 568.392 196.442 556.417 c 0
 191.212 548.801 185.814 537.922 182.345 524.044 c 0
 177.828 505.979 151.611 483.978 123.824 474.934 c 0
 96.0371 465.89 77.1504 473.212 81.667 491.277 c 0
 88.2471 517.599 99.5166 536.485 107.503 548.116 c 0
 137.117 591.244 182.831 617.82 192.336 623.308 c 0
 204.93 630.579 200.525 627.895 202.591 628.994 c 0
 251.134 654.84 330.232 683.111 474.278 683.112 c 0
 497.104 683.112 502.257 666.716 485.779 646.513 c 0
 469.302 626.311 437.403 609.914 414.578 609.914 c 0
 321.204 609.914 255.886 596.923 221.933 578.846 c 0
 220.734 578.208 224.264 580.261 218.958 577.197 c 0
796.585 390.479 m 0
 831.966 410.906 853.875 439.723 863.609 478.66 c 0
 871.358 509.659 867.994 531.944 858.597 548.221 c 0
 825.121 606.201 708.083 609.914 541.424 609.914 c 2
 414.577 609.914 l 2
 391.752 609.914 386.6 626.311 403.077 646.513 c 0
 419.555 666.716 451.453 683.112 474.278 683.112 c 2
 601.125 683.111 l 2
 738.285 683.111 909.989 686.598 957.06 605.069 c 0
 969.781 583.036 974.736 553.226 964.287 511.428 c 0
 947.097 442.667 894.466 385.512 823.207 344.369 c 0
 723.952 287.063 610.498 273.314 533.38 273.314 c 0
 510.554 273.314 505.401 289.711 521.879 309.913 c 0
 538.356 330.115 570.255 346.512 593.081 346.512 c 0
 693.667 346.512 762.252 370.657 796.585 390.479 c 0
1024.42 28.3809 m 0
 997.967 13.1094 930.327 -22.1641 851.027 -22.1641 c 0
 710.603 -22.1641 633.761 273.313 533.38 273.314 c 0
 510.554 273.314 505.401 289.711 521.879 309.913 c 0
 538.356 330.116 570.255 346.512 593.081 346.512 c 0
 732.742 346.512 811.002 51.0342 910.729 51.0342 c 0
 937.903 51.0342 967.613 57.0645 997.797 74.4912 c 0
 1011.91 82.6416 1026.16 93.292 1040.61 107.938 c 0
 1060.31 127.914 1092.62 141.677 1112.73 138.658 c 0
 1132.84 135.64 1133.17 116.978 1113.46 97.002 c 0
 1092.38 75.626 1063.02 50.667 1024.42 28.3809 c 0
EndSplineSet
Fore
1107 139 m 0
 1121 139 1128 133 1128 124 c 0
 1128 95 995 -22 851 -22 c 0
 711 -22 634 273 533 273 c 0
 520 273 512 279 512 289 c 0
 512 312 558 347 593 347 c 0
 708 347 868 379 868 511 c 0
 868 595 771 610 541 610 c 2
 493 610 l 1
 477 387 411 188 335 25 c 0
 322 -2 280 -22 257 -22 c 0
 243 -22 235 -16 235 -7 c 0
 235 11 379 261 393 610 c 1
 239 606 195 576 182 524 c 0
 176 498 131 471 102 471 c 0
 89 471 81 477 81 486 c 0
 81 512 116 579 192 623 c 2
 203 629 l 2
 251 655 330 683 474 683 c 2
 665 683 l 2
 789 683 970 678 970 553 c 0
 970 449 871 338 695 293 c 1
 777 208 838 51 911 51 c 0
 1024 51 1039 139 1107 139 c 0
EndSplineSet
EndChar
StartChar: S
Encoding: 83 83 20
Width: 864
Flags: W
HStem: -22 73<283 486.5> 632 73<504.5 640.5>
VStem: 84 102<124.5 182.5> 271 102<444.5 569.5> 668 102<169 294> 725 102<545.5 615>
Back
716.63 585.65 m 0
 710.693 595.934 701.666 603.485 691.438 607.352 c 0
 647.672 623.896 599.892 632.131 551.024 632.131 c 0
 484.239 632.131 435.913 617.406 412.736 604.024 c 0
 405.432 599.807 395.517 593.125 386.823 579.107 c 0
 382.584 572.272 378.529 563.387 375.837 552.62 c 0
 369.613 527.723 372.821 506.29 383.54 487.725 c 0
 411.353 439.552 485.771 418.609 527.417 410.218 c 0
 615.388 392.491 715.252 361.382 753.557 295.037 c 0
 769.343 267.696 774.837 233.919 764.546 192.756 c 0
 758.186 167.312 743.919 132.144 707.285 95.4346 c 0
 685.804 73.9102 661.206 56.6582 639.194 43.9492 c 0
 542.151 -12.0791 427.795 -22.1641 353.288 -22.1641 c 0
 232.415 -22.1641 156.465 25.6592 117.848 59.667 c 0
 109.397 67.1094 102.383 75.6719 96.9248 85.124 c 0
 81.9453 111.069 75.0596 152.993 104.059 199.34 c 0
 109.125 207.437 113.891 213.765 119.198 219.909 c 0
 128.394 230.556 141.964 243.707 162.71 255.685 c 0
 186.312 269.312 209.51 275.711 229.821 275.711 c 0
 252.646 275.711 257.799 259.314 241.322 239.112 c 0
 224.845 218.909 192.946 202.513 170.12 202.513 c 0
 169.976 202.513 178.983 203.6 189.332 209.574 c 1
 189.258 209.531 199.289 216.8 199.288 216.799 c 0
 198.374 215.739 196.98 213.818 195.513 211.473 c 0
 184.659 194.127 180.997 166.899 195.389 141.973 c 0
 199.47 134.904 204.767 128.461 210.955 123.011 c 0
 242.713 95.0439 308.693 51.0342 412.989 51.0342 c 0
 507.341 51.0332 577.471 69.793 612.572 90.0586 c 0
 621.303 95.0996 628.398 100.331 635.151 107.098 c 0
 645.607 117.575 657.544 134.694 663.868 159.989 c 0
 670.496 186.501 669.516 213.209 655.093 238.188 c 0
 624.481 291.209 542.614 320.313 452.955 338.38 c 0
 398.58 349.337 317.886 374.05 285.076 430.875 c 0
 271.285 454.763 266.243 484.187 275.159 519.853 c 0
 279.131 535.739 285.608 551.239 295.157 566.634 c 0
 324.064 613.242 370.542 641.144 386.114 650.135 c 0
 464.778 695.552 553.945 705.328 610.726 705.328 c 0
 670.013 705.328 724.773 695.489 773.855 676.936 c 0
 793.231 669.611 806.475 657.427 815.094 642.499 c 0
 827.614 620.812 830.499 593.24 822.919 562.918 c 0
 818.402 544.853 792.186 522.851 764.398 513.807 c 0
 736.611 504.763 717.725 512.085 722.24 530.149 c 0
 727.233 550.125 725.251 570.718 716.63 585.65 c 0
EndSplineSet
Fore
722 525 m 0xf4
 722 530 725 539 725 552 c 0xf4
 725 579 711 600 691 607 c 0
 648 624 600 632 551 632 c 0
 458 632 373 611 373 528 c 0
 373 450 479 420 527 410 c 0
 610 394 770 355 770 233 c 0
 770 105 620 -22 353 -22 c 0
 213 -22 119 47 97 85 c 0
 88 100 84 116 84 133 c 0
 84 203 156 276 230 276 c 0
 244 276 251 270 251 261 c 0
 251 241 222 216 193 207 c 1
 189 198 186 188 186 177 c 0
 186 159 193 139 211 123 c 0
 243 95 309 51 413 51 c 0
 428 51 580 51 635 107 c 0
 654 126 668 157 668 189 c 0xf8
 668 279 558 317 453 338 c 0
 352 359 271 404 271 485 c 0
 271 588 398 705 611 705 c 0
 670 705 725 695 774 677 c 0
 807 664 827 635 827 595 c 0
 827 516 748 510 743 510 c 0
 730 510 722 515 722 525 c 0xf4
EndSplineSet
EndChar
StartChar: T
Encoding: 84 84 21
Width: 818
Flags: W
HStem: 606 77<319 943> 697 20G<1047 1067.5>
Back
432.869 152.673 m 2
 541.07 585.475 l 2
 545.641 603.758 573.936 627.553 604.229 638.589 c 0
 634.522 649.625 655.398 643.744 650.828 625.462 c 2
 542.627 192.659 l 2
 525.083 122.481 498.358 52.3154 462.786 -16.3438 c 0
 452.379 -36.4316 420.547 -58.6172 391.732 -65.8643 c 0
 362.918 -73.1113 347.979 -62.6904 358.388 -42.6016 c 0
 391.127 20.5908 416.286 86.3418 432.869 152.673 c 2
1023.21 635.979 m 0
 1005.48 625.741 988.787 619.727 975.613 616.059 c 0
 941.101 606.449 902.915 605.63 858.078 605.629 c 2
 318.949 605.629 l 2
 310.688 605.629 291.204 604.941 270.634 597.983 c 0
 263.492 595.568 257.33 592.771 252.076 589.738 c 0
 247.109 586.87 237.05 580.42 226.706 567.506 c 0
 220.64 559.932 212.479 547.63 206.861 530.549 c 0
 200.662 511.697 171.28 488.255 141.278 478.222 c 0
 111.276 468.188 91.958 475.346 98.1572 494.197 c 0
 105.43 516.31 117.213 538.014 134.392 559.461 c 0
 155.023 585.221 184.978 612.312 225.527 635.724 c 0
 247.604 648.469 270.491 658.643 292.353 666.037 c 0
 327.458 677.91 360.041 683.004 389.85 683.004 c 2
 928.979 683.004 l 2
 944.06 683.004 990.801 682.634 1008.58 687.584 c 0
 1008.61 687.591 1004.23 686.329 996.665 681.963 c 1
 998.319 682.919 841.172 558.142 984.693 673.775 c 0
 984.694 673.776 971.137 658.432 971.163 658.483 c 1
 975.733 676.766 1004.03 700.561 1034.32 711.598 c 0
 1064.62 722.634 1085.49 716.753 1080.92 698.471 c 1
 1078.46 693.746 1076.98 676.401 1046.61 651.93 c 0
 1042.43 648.563 1028.1 638.802 1023.21 635.979 c 0
EndSplineSet
Fore
1082 703 m 0
 1082 701 1079 678 1047 652 c 0
 992 608 929 606 858 606 c 2
 646 606 l 1
 543 193 l 2
 525 122 498 52 463 -16 c 0
 449 -43 403 -68 375 -68 c 0
 362 -68 355 -63 355 -54 c 0
 355 -39 400 20 433 153 c 2
 541 585 l 2
 543 592 547 599 553 606 c 1
 319 606 l 2
 252 606 220 571 207 531 c 0
 197 500 144 474 116 474 c 0
 104 474 97 478 97 487 c 0
 97 489 97 491 98 494 c 0
 132 598 270 683 390 683 c 0
 936 683 l 0
 950 683 972 683 990 685 c 1
 1001 695 1033 717 1061 717 c 0
 1074 717 1082 712 1082 703 c 0
EndSplineSet
EndChar
StartChar: U
Encoding: 85 85 22
Width: 871
Flags: HW
HStem: -22 73<124 291> 610 73<139 232>
VStem: 37 103<89.5 245.5> 186 102<546 651.5> 601 103<7 125.5>
Back
347.743 36.7744 m 0
 284.067 0.00976562 221.578 -22.1641 169.516 -22.1641 c 0
 146.195 -22.1641 91.5928 -18.2725 59.8438 36.7178 c 0
 33.9141 81.6299 30.9648 145.354 47.5068 211.524 c 0
 81.5869 347.844 207.996 559.985 182.416 604.29 c 0
 179.971 608.525 176.607 609.913 172.646 609.913 c 0
 134.842 609.914 106.478 596.734 92.3887 588.766 c 0
 65.0791 573.318 37.3691 571.349 30.5352 584.368 c 0
 23.7021 597.389 40.3203 620.493 67.6309 635.94 c 0
 126.071 668.996 184.903 683.111 232.348 683.111 c 0
 238.914 683.111 267.892 683.636 280.88 661.139 c 0
 318.617 595.776 184.616 390.015 148.186 244.291 c 0
 133.923 187.241 137.19 130.142 158.308 93.5664 c 0
 178.295 58.9482 208.097 51.0342 229.217 51.0342 c 0
 254.402 51.0342 285.583 62.3662 321.122 82.8838 c 0
 494.965 183.254 731.394 468.868 771.709 630.129 c 0
 776.226 648.194 802.442 670.195 830.229 679.239 c 0
 858.017 688.283 876.903 680.961 872.387 662.896 c 0
 826.464 479.202 566.885 163.297 347.743 36.7744 c 0
720.985 196.144 m 0
 710.18 152.922 704.293 109.703 703.473 67.4287 c 0
 703.375 62.373 704.558 57.8086 706.7 54.0967 c 0
 711.133 46.4189 718.676 43.3066 723.879 43.374 c 0
 725.066 43.3896 722.11 43.3896 716.825 40.7227 c 1
 732.65 48.707 l 2
 760.511 62.7637 786.404 62.3945 790.45 47.8828 c 0
 794.495 33.3721 775.168 10.1865 747.309 -3.86914 c 2
 731.483 -11.8535 l 2
 725.333 -14.9561 696.774 -29.4062 665.416 -29.8154 c 0
 633.565 -30.2314 616.106 -16.3818 608.236 -2.75195 c 0
 603.721 5.07031 601.271 14.4141 601.48 25.2637 c 0
 602.354 70.3525 608.625 116.646 620.308 163.377 c 0
 659.651 320.753 710.65 478.001 772.93 633.866 c 0
 780.504 652.824 808.657 673.876 835.771 680.857 c 0
 862.885 687.838 878.741 678.117 871.166 659.159 c 0
 809.97 506.004 759.756 351.227 720.985 196.144 c 0
EndSplineSet
Fore
140 171 m 0
 140 103 172 51 229 51 c 0
 353 51 634 334 738 543 c 2
 773 633 l 2
 782 658 822 683 852 683 c 0
 869 683 873 674 873 668 c 0
 873 659 860 617 837 571 c 0
 781 418 704 175 704 76 c 0
 704 61 705 45 722 43 c 1
 733 49 l 2
 746 56 759 59 770 59 c 0
 781 59 791 55 791 44 c 0
 791 29 773 9 747 -4 c 2
 731 -12 l 2
 707 -24 684 -30 664 -30 c 0
 627 -30 601 -10 601 24 c 0
 601 82 611 143 661 312 c 1
 511 136 313 -22 170 -22 c 0
 78 -22 37 47 37 132 c 0
 37 279 186 504 186 588 c 0
 186 598 183 610 173 610 c 0
 105 610 88 576 50 576 c 0
 40 576 29 580 29 591 c 0
 29 628 139 683 232 683 c 0
 260 683 288 673 288 630 c 0
 288 531 140 320 140 171 c 0
EndSplineSet
EndChar
StartChar: V
Encoding: 86 86 23
Width: 894
Flags: W
HStem: 575 108<702.5 777.5> 614 69<107 263>
VStem: 322 92<68 269> 817 63<495.5 591.5>
Back
245.009 524.864 m 0
 232.333 546.819 191.514 614.419 114.054 614.419 c 0
 92.374 614.419 85.5068 629.743 98.7256 648.625 c 0
 111.945 667.507 140.269 682.831 161.948 682.831 c 0
 248.026 682.831 299.673 633.709 333.138 575.745 c 0
 422.443 421.061 416.758 131.588 411.36 36.3516 c 1
 383.726 18.8896 361.802 6.38477 348.822 0 c 1
 317.535 -25.2725 l 1
 317.553 -23.7822 317.749 -22.2041 318.135 -20.5449 c 1
 315.459 -32.042 351.723 340.025 245.009 524.864 c 0
810.663 473.301 m 0
 812.744 479.019 814.381 484.355 815.675 489.53 c 0
 817.505 496.851 816.577 502.67 814.875 509.389 c 0
 809.667 529.938 791.799 553.984 756.803 566.723 c 0
 742.31 571.997 725.792 574.896 708.064 574.896 c 0
 692.702 574.896 686.915 599.088 695.146 628.896 c 0
 703.376 658.703 722.524 682.896 737.886 682.896 c 0
 758.722 682.896 778.13 679.528 795.553 673.187 c 0
 847.278 654.359 867.855 615.24 875.066 586.784 c 0
 881.027 563.258 882.154 532.523 872.772 494.999 c 0
 869.406 481.533 865.257 468.167 860.521 455.153 c 0
 771.098 209.471 419.214 -14.0078 342.347 -51.8164 c 0
 325.289 -60.207 314.346 -43.8027 317.92 -15.2002 c 0
 321.494 13.4023 338.238 43.4258 355.296 51.8164 c 0
 455.414 101.062 752.635 313.87 810.663 473.301 c 0
EndSplineSet
Fore
322 107 m 0xb0
 322 341 274 614 114 614 c 0
 100 614 92 621 92 631 c 0
 92 652 129 683 162 683 c 0x70
 364 683 414 404 414 134 c 0
 414 117 414 100 413 85 c 1
 544 168 782 353 816 490 c 0
 816 492 817 494 817 497 c 0
 817 525 785 575 708 575 c 0
 697 575 691 586 691 603 c 0
 691 641 718 683 738 683 c 0
 817 683 880 635 880 548 c 0
 880 531 877 514 873 495 c 0
 801 209 355 -54 334 -54 c 0
 323 -54 318 -41 318 -25 c 1
 318 -21 l 1
 317 -25 322 29 322 107 c 0xb0
EndSplineSet
EndChar
StartChar: W
Encoding: 87 87 24
Width: 1363
Flags: W
HStem: 575 108<1202.5 1271> 614 69<107 234.5>
VStem: 285 92<164 393.5> 1286 62<441 595.5>
Back
226.201 539.948 m 0
 197.032 590.472 158.024 614.419 114.054 614.419 c 0
 92.374 614.419 85.5068 629.743 98.7256 648.625 c 0
 111.945 667.507 140.269 682.831 161.948 682.831 c 0
 205.307 682.831 268.482 670.242 314.331 590.828 c 0
 382.548 472.672 381.507 257.174 372.104 122.504 c 1
 440.797 195.859 505.167 272.305 564.756 351.212 c 0
 629.173 436.513 687.792 524.404 740.241 614.086 c 1
 746.269 614.086 l 1
 741.352 623.813 l 2
 734.727 636.812 749.242 658.476 773.755 672.172 c 0
 798.267 685.868 823.538 686.435 830.164 673.437 c 0
 883.22 569.353 925.457 458.642 956.415 342.519 c 0
 981.249 249.366 998.753 152.997 1008.8 54.0957 c 1
 983.45 28.6064 963.249 9.7334 951.992 0 c 2
 920.642 -25.3242 l 1
 911.7 85.9951 893.257 194.267 865.479 298.457 c 0
 841.416 388.72 810.417 475.664 772.719 558.678 c 1
 716.106 461.865 653.42 367.992 585.22 277.683 c 0
 499.343 163.967 405.059 56.334 303.511 -44.1943 c 0
 286.209 -61.3232 270.47 -55.4248 268.379 -31.0293 c 0
 267.732 -23.4873 268.466 -15.0566 270.299 -6.50098 c 0
 277.144 59.833 316.963 382.741 226.201 539.948 c 0
1277.15 466.482 m 0
 1280.19 474.838 1282.55 482.496 1284.31 489.53 c 0
 1286.74 499.248 1285.82 507.582 1285.37 511.205 c 0
 1282.72 532.309 1269.82 558.271 1238.31 569.74 c 0
 1229.19 573.06 1218.88 574.896 1207.53 574.896 c 0
 1192.17 574.896 1186.38 599.088 1194.61 628.896 c 0
 1202.84 658.703 1221.99 682.896 1237.35 682.896 c 0
 1251.79 682.896 1265.06 680.571 1277.06 676.204 c 0
 1312.44 663.325 1340.95 630.563 1347.6 577.595 c 0
 1350.5 554.514 1349.18 526.112 1341.41 494.998 c 0
 1337.47 479.252 1332.58 463.633 1327.01 448.335 c 0
 1245.89 225.46 983.271 -20.5859 953.183 -46.6025 c 0
 935.768 -61.6611 921.1 -53.0049 920.441 -27.2812 c 0
 919.784 -1.55664 933.385 31.543 950.8 46.6016 c 0
 1034.63 119.09 1227.09 328.926 1277.15 466.482 c 0
EndSplineSet
Fore
92 631 m 0x70
 92 652 129 683 162 683 c 0
 307 683 377 529 377 258 c 0
 377 215 375 170 372 123 c 1
 511 271 636 437 740 614 c 1
 746 614 l 1
 741 624 l 2
 740 626 740 628 740 631 c 0
 740 652 777 683 810 683 c 0x70
 819 683 827 680 830 673 c 0
 936 466 983 263 1004 97 c 1
 1099 193 1255 373 1284 490 c 0
 1285 494 1286 499 1286 504 c 0
 1286 538 1257 575 1208 575 c 0
 1197 575 1191 586 1191 603 c 0
 1191 641 1217 683 1237 683 c 0xb0
 1305 683 1348 635 1348 556 c 0
 1348 326 993 -12 953 -47 c 0
 947 -52 942 -54 937 -54 c 0
 927 -54 920 -43 920 -23 c 0
 907 139 870 344 773 559 c 1
 642 336 483 134 304 -44 c 0
 296 -52 290 -55 285 -55 c 0
 274 -55 269 -40 269 -23 c 0
 269 -20 285 103 285 225 c 0
 285 552 182 614 114 614 c 0
 100 614 92 621 92 631 c 0x70
EndSplineSet
EndChar
StartChar: X
Encoding: 88 88 25
Width: 993
Flags: HW
HStem: 0 73<168 257 671.5 777> 610 73<427 532.5 883.5 972.5>
VStem: 115 102<45 110> 924 102<573 637.5>
Back
839.354 25.1504 m 0
 822.039 15.1543 805.494 9.59375 792.438 6.44336 c 0
 775.212 2.28516 757.347 0.0527344 712.525 0.0527344 c 0
 683.824 0.0527344 643.285 7.85352 615.14 56.6025 c 0
 599.023 84.5166 591.587 117.634 588.251 134.125 c 2
 514.232 500.046 l 2
 509.111 525.361 501.529 550.237 490.284 569.714 c 0
 472.518 600.486 449.943 609.914 431.662 609.914 c 0
 417.394 609.914 392.468 610.056 381.512 607.411 c 0
 381.502 607.409 385.519 608.648 391.156 611.903 c 1
 391.149 611.9 409.518 631.526 407.547 623.641 c 0
 403.03 605.575 376.812 583.574 349.025 574.53 c 0
 321.238 565.486 302.353 572.808 306.868 590.873 c 0
 313.564 617.66 335.605 641.312 364.534 658.014 c 0
 381.85 668.011 398.395 673.57 411.449 676.722 c 0
 428.677 680.88 446.542 683.111 491.362 683.111 c 0
 520.064 683.111 560.603 675.311 588.748 626.562 c 0
 604.864 598.648 612.301 565.531 615.637 549.04 c 2
 689.655 183.119 l 2
 694.776 157.804 702.358 132.928 713.604 113.451 c 0
 731.37 82.6787 753.944 73.251 772.227 73.251 c 0
 786.494 73.251 811.421 73.1084 822.377 75.7539 c 0
 822.386 75.7559 818.369 74.5156 812.731 71.2607 c 1
 812.738 71.2646 794.369 51.6367 796.341 59.5225 c 0
 800.856 77.5879 827.074 99.5898 854.861 108.634 c 0
 882.648 117.678 901.535 110.355 897.019 92.291 c 0
 890.322 65.5049 868.282 41.8525 839.354 25.1504 c 0
123.346 33.3662 m 0
 115.222 47.4365 112.42 65.0693 117.674 86.0869 c 0
 123.879 110.908 145.954 136.508 179.386 163.176 c 0
 195.08 175.695 221.62 194.985 267.217 221.312 c 0
 423.34 311.45 702.932 424.755 847.051 507.963 c 0
 878.228 525.963 895.526 538.113 905.974 546.447 c 0
 911.186 550.604 921.208 558.992 922.538 564.311 c 0
 925.029 574.277 923.795 584.784 919.081 592.949 c 0
 912.221 604.831 900.682 609.092 893.001 609.793 c 0
 892.263 609.86 894.771 609.914 890.407 609.914 c 0
 867.582 609.914 862.43 626.31 878.906 646.513 c 0
 895.384 666.715 927.282 683.111 950.108 683.111 c 0
 954.473 683.111 958.367 682.835 960.331 682.656 c 0
 984.425 680.457 1006.13 669.565 1017.54 649.798 c 0
 1025.67 635.729 1028.47 618.096 1023.22 597.078 c 0
 1017.01 572.257 994.936 546.656 961.504 519.988 c 0
 945.81 507.47 919.271 488.179 873.673 461.853 c 0
 717.551 371.715 437.958 258.409 293.839 175.201 c 0
 262.662 157.201 245.363 145.052 234.916 136.718 c 0
 229.704 132.561 219.682 124.173 218.352 118.854 c 0
 215.86 108.887 217.095 98.3799 221.809 90.2148 c 0
 226.193 82.6211 233.371 73.9023 250.482 73.25 c 0
 272.601 72.4072 278.459 56.8535 261.981 36.6504 c 0
 245.504 16.4482 213.121 -0.530273 190.78 0.0527344 c 0
 181.153 0.303711 142.116 0.855469 123.346 33.3662 c 0
EndSplineSet
Fore
271 58 m 0
 271 43 240 0 187 0 c 0
 149 0 115 25 115 65 c 0
 115 97 129 141 267 221 c 0
 342 265 443 312 543 359 c 1
 514 500 l 2
 493 603 446 610 430 610 c 0
 422 610 409 610 400 609 c 1
 383 587 349 571 327 571 c 0
 314 571 306 576 306 586 c 0
 306 604 335 658 411 677 c 0
 429 681 447 683 491 683 c 0
 574 683 602 616 616 549 c 2
 645 406 l 1
 758 459 858 508 906 546 c 0
 919 557 924 568 924 578 c 0
 924 596 906 610 890 610 c 0
 877 610 869 616 869 625 c 0
 869 648 915 683 950 683 c 0
 995 683 1026 657 1026 618 c 0
 1026 564 988 508 656 351 c 1
 690 183 l 2
 711 80 756 73 772 73 c 2
 777 73 l 2
 785 73 795 73 804 74 c 1
 820 96 854 113 876 113 c 0
 890 113 898 107 898 97 c 0
 898 79 869 25 792 6 c 0
 775 2 757 0 713 0 c 0
 630 0 602 68 588 134 c 2
 554 304 l 1
 419 241 291 181 235 137 c 0
 222 126 217 115 217 105 c 0
 217 88 233 74 250 73 c 0
 264 73 271 67 271 58 c 0
EndSplineSet
EndChar
StartChar: Y
Encoding: 89 89 26
Width: 926
Flags: W
HStem: -144 93<203.5 322.5> 590 93<746 816> 614 69<187.5 361.5>
VStem: 456 91<33 100> 855 60<496.5 588>
Back
355.751 504.812 m 0
 313.562 577.887 260.144 614.419 200.309 614.419 c 0
 193.292 614.419 188.341 612.928 185.108 610.886 c 0
 179.747 607.499 181.527 608.456 180.312 607.402 c 0
 179.871 607.02 179.74 606.963 178.201 605.444 c 0
 159.732 587.231 130.601 576.491 113.175 581.47 c 0
 95.748 586.449 96.5938 605.271 115.062 623.485 c 0
 116.915 625.313 122.769 630.729 124.801 632.491 c 0
 136.76 642.865 137.224 643.438 158.705 656.618 c 0
 188.465 674.877 221.761 682.831 248.204 682.831 c 0
 362.078 682.831 418.302 599.997 443.881 555.693 c 0
 529.137 408.022 545.684 163.433 548.463 56.7549 c 1
 517.231 31.8467 486.339 9.33887 457.001 -10.2939 c 1
 456.795 57.7422 452.942 336.47 355.751 504.812 c 0
229.78 -41.208 m 0
 246.738 -47.3809 265.703 -50.6982 285.978 -50.6982 c 0
 366.495 -50.6982 747.135 203.216 841.74 463.14 c 0
 846.311 475.695 850.132 488.082 853.205 500.377 c 0
 855.695 510.337 854.665 518.022 854.095 521.604 c 0
 850.751 542.599 833.867 569.143 797.354 582.433 c 0
 783.795 587.368 768.335 590.094 751.675 590.095 c 0
 736.341 590.095 728.992 610.927 735.273 636.595 c 0
 741.554 662.262 759.097 683.094 774.432 683.094 c 0
 794.692 683.094 813.56 679.815 830.549 673.632 c 0
 861.35 662.422 903.216 634.3 912.867 573.696 c 0
 916.231 552.569 915.368 526.776 908.562 499.551 c 0
 903.953 481.118 898.297 462.863 891.771 444.931 c 0
 782.671 145.188 376.958 -143.698 263.222 -143.698 c 0
 239.339 -143.697 216.944 -139.817 196.586 -132.408 c 0
 125.396 -106.496 103.7 -47.8574 98.3887 -33.0283 c 0
 91.918 -14.9609 99.0469 14.5 114.303 32.7314 c 0
 129.558 50.9629 147.19 51.0967 153.662 33.0283 c 0
 157.681 21.8076 175.137 -21.3193 229.78 -41.208 c 0
EndSplineSet
Fore
547 100 m 1xb8
 801 304 855 480 855 513 c 0
 855 552 813 590 752 590 c 0
 740 590 733 602 733 619 c 0
 733 650 756 683 774 683 c 0xd8
 858 683 915 628 915 548 c 0
 915 533 913 516 909 500 c 0
 827 174 382 -144 263 -144 c 0
 144 -144 96 -50 96 -18 c 0
 96 17 120 46 137 46 c 0
 144 46 150 42 154 33 c 0
 170 -13 217 -51 286 -51 c 0
 314 -51 380 -19 456 33 c 1
 448 384 348 614 200 614 c 0
 175 614 165 580 123 580 c 0
 114 580 100 583 100 596 c 0
 100 621 171 683 248 683 c 0
 475 683 535 346 547 100 c 1xb8
EndSplineSet
EndChar
StartChar: Z
Encoding: 90 90 27
Width: 986
Flags: W
HStem: 0 78<591 743.5> 20 77<203.5 307.5> 321 81<689 737.5> 340 63<420 524 613 689> 586 77<799 890> 606 77<479 626>
Back
799.048 585.92 m 0
 697.257 585.92 597.864 605.629 503.902 605.629 c 0
 448.375 605.629 414.143 593.356 410.034 591.93 c 0
 401.766 589.057 396.283 586.367 393.229 584.604 c 0
 381.213 577.666 375.513 564.012 375.494 563.975 c 0
 373.169 559.305 370.998 553.664 369.381 547.195 c 0
 364.811 528.913 336.515 505.118 306.222 494.082 c 0
 275.929 483.046 255.052 488.927 259.623 507.209 c 0
 262.086 517.06 265.639 526.781 270.501 536.547 c 0
 276.503 548.603 298.967 591.494 366.681 630.589 c 0
 388.252 643.043 409.732 652.34 429.947 659.363 c 0
 491.402 680.715 550.164 683.004 574.803 683.004 c 0
 676.595 683.004 775.986 663.294 869.948 663.294 c 0
 877.222 663.294 883.942 664.059 889.684 665.197 c 0
 898 666.847 904.13 669.108 909.354 671.692 c 0
 939.86 686.782 966.9 686.765 969.709 671.653 c 0
 972.519 656.542 950.039 632.031 919.532 616.941 c 0
 889.788 602.229 863.687 594.501 843.259 590.45 c 0
 827.512 587.328 812.804 585.92 799.048 585.92 c 0
577.54 383.107 m 0
 680.87 465.651 780.251 554.004 874.935 647.633 c 0
 896.452 668.909 931.614 684.691 953.423 682.861 c 0
 975.23 681.031 975.468 662.277 953.951 641.001 c 0
 854.263 542.425 748.938 448.719 638.638 360.607 c 0
 489.636 241.578 336.124 128.363 178.698 21.4434 c 0
 150.617 2.37109 117.887 -5.31055 105.638 4.29688 c 0
 93.3896 13.9043 106.239 37.1807 134.32 56.2529 c 0
 285.702 159.067 433.61 268.131 577.54 383.107 c 0
789.873 37.9043 m 0
 745.975 12.5596 701.747 0.160156 663.76 0.160156 c 0
 518.39 0.161133 379.896 19.8691 234.525 19.8701 c 0
 203.047 19.8701 172.773 14.1318 146.148 4.99121 c 0
 116.051 -5.3418 96.2656 1.43945 101.985 20.1289 c 0
 107.705 38.8174 136.773 62.3711 166.871 72.7041 c 0
 216.168 89.6289 262.767 97.2441 305.426 97.2441 c 0
 450.796 97.2441 589.29 77.5352 734.66 77.5352 c 0
 750.396 77.5352 759.003 81.3945 763.323 83.8887 c 0
 766.737 85.8604 772.687 89.9375 780.57 98.2988 c 0
 793.083 111.571 809.141 135.401 816.602 165.247 c 0
 821.173 183.529 849.468 207.324 879.761 218.36 c 0
 910.055 229.397 930.931 223.517 926.36 205.233 c 0
 920.466 181.654 904.948 139.609 864.253 96.4443 c 0
 844.951 75.9707 819.854 55.2129 789.873 37.9043 c 0
703.399 335.52 m 0
 703.296 335.699 705.433 333.194 705.417 333.205 c 0
 693.559 341.021 594.711 340.357 592.453 340.357 c 2
 419.846 340.357 l 2
 399.817 340.357 390.567 354.47 399.198 371.857 c 0
 407.829 389.246 431.09 403.358 451.118 403.357 c 2
 623.726 403.357 l 2
 712.997 403.357 750.12 400.068 768.597 387.889 c 0
 770.876 386.386 775.013 383.312 777.805 378.478 c 0
 780.536 373.747 782.099 367.14 779.999 358.737 c 0
 775.748 341.733 754.937 324.982 733.546 321.345 c 0
 712.155 317.708 698.244 328.556 702.495 345.56 c 0
 702.497 345.567 703.399 335.52 703.399 335.52 c 0
EndSplineSet
Fore
781 367 m 0x24
 781 340 750 321 725 321 c 0x24
 714 321 704 325 702 335 c 1
 688 339 641 340 613 340 c 1
 522 267 414 186 288 97 c 1
 305 97 l 2x50
 451 97 589 78 735 78 c 0
 752 78 764 80 781 98 c 0
 793 112 809 135 817 165 c 0
 822 188 871 224 907 224 c 0
 919 224 927 219 927 210 c 0
 927 209 927 207 926 205 c 0
 898 92 769 0 664 0 c 0x80
 518 0 380 20 235 20 c 0x40
 172 20 144 0 121 0 c 0
 110 0 101 4 101 14 c 0
 101 23 109 41 136 57 c 0
 291 163 419 258 524 340 c 1
 420 340 l 2
 405 340 396 348 396 359 c 0
 396 378 422 403 451 403 c 2
 602 403 l 1
 691 477 760 538 811 586 c 1
 799 586 l 0x98
 697 586 598 606 504 606 c 0
 454 606 412 595 393 585 c 0
 380 577 373 560 369 547 c 0
 364 524 315 489 279 489 c 0
 267 489 259 493 259 502 c 0
 259 504 259 506 260 507 c 0
 281 591 402 683 575 683 c 0x04
 677 683 776 663 870 663 c 0x08
 910 663 918 683 950 683 c 0
 964 683 970 677 970 670 c 0
 970 661 963 650 954 641 c 0
 892 579 806 499 689 402 c 1
 753 399 781 390 781 367 c 0x24
EndSplineSet
EndChar
